<?xml version="1.0" encoding="utf-8"?>
<!-- Generator: Adobe Illustrator 28.4.1, SVG Export Plug-In . SVG Version: 6.00 Build 0)  -->
<svg version="1.1" id="Layer_1" xmlns="http://www.w3.org/2000/svg" xmlns:xlink="http://www.w3.org/1999/xlink" x="0px" y="0px"
	 viewBox="0 0 244.4 129.4" style="enable-background:new 0 0 244.4 129.4;" xml:space="preserve">
<style type="text/css">
	.st0{fill-rule:evenodd;clip-rule:evenodd;fill:#963232;}
	.st1{fill-rule:evenodd;clip-rule:evenodd;fill:#81A8C6;}
	.st2{fill-rule:evenodd;clip-rule:evenodd;fill:none;}
	.st3{fill:#963232;}
	.st4{font-family:'Montserrat-Black';}
	.st5{font-size:20px;}
	.st6{font-size:4px;}
	
		.st7{clip-path:url(#SVGID_00000139288973532490404650000008163704461464043698_);fill-rule:evenodd;clip-rule:evenodd;fill:#156082;}
	
		.st8{clip-path:url(#SVGID_00000155127820710312852140000017352229287468625565_);fill-rule:evenodd;clip-rule:evenodd;fill:#156082;}
	
		.st9{clip-path:url(#SVGID_00000048481814064802480940000006034308499982665607_);fill-rule:evenodd;clip-rule:evenodd;fill:#963232;}
	.st10{fill:#FFFFFF;}
	.st11{font-family:'BarlowCondensed-Medium';}
	.st12{font-size:12px;}
	.st13{font-family:'Montserrat-Medium';}
	.st14{font-size:8px;}
</style>
<rect x="7.4" y="40.4" class="st0" width="9" height="9"/>
<rect x="16.9" y="40.4" class="st0" width="9" height="9"/>
<rect x="26.3" y="40.4" class="st0" width="9" height="9"/>
<rect x="35.8" y="40.4" class="st0" width="9" height="9"/>
<rect x="45.3" y="40.4" class="st0" width="9" height="9"/>
<rect x="7.4" y="49.9" class="st0" width="9" height="9"/>
<rect x="16.9" y="49.9" class="st0" width="9" height="9"/>
<rect x="26.3" y="49.9" class="st0" width="9" height="9"/>
<rect x="35.8" y="49.9" class="st0" width="9" height="9"/>
<rect x="45.3" y="49.9" class="st0" width="9" height="9"/>
<rect x="7.4" y="59.3" class="st0" width="9" height="9"/>
<rect x="16.9" y="59.3" class="st0" width="9" height="9"/>
<rect x="26.3" y="59.3" class="st0" width="9" height="9"/>
<rect x="35.8" y="59.3" class="st0" width="9" height="9"/>
<rect x="45.3" y="59.3" class="st0" width="9" height="9"/>
<rect x="7.4" y="68.8" class="st0" width="9" height="9"/>
<rect x="16.9" y="68.8" class="st0" width="9" height="9"/>
<rect x="26.3" y="68.8" class="st0" width="9" height="9"/>
<rect x="35.8" y="68.8" class="st0" width="9" height="9"/>
<rect x="45.3" y="68.8" class="st0" width="9" height="9"/>
<rect x="7.4" y="78.2" class="st0" width="9" height="9"/>
<rect x="16.9" y="78.2" class="st0" width="9" height="9"/>
<rect x="26.3" y="78.2" class="st0" width="9" height="9"/>
<rect x="35.8" y="78.2" class="st0" width="9" height="9"/>
<rect x="45.3" y="78.2" class="st0" width="9" height="9"/>
<rect x="7.4" y="87.7" class="st0" width="9" height="9"/>
<rect x="16.9" y="87.7" class="st0" width="9" height="9"/>
<rect x="26.3" y="87.7" class="st0" width="9" height="9"/>
<rect x="35.8" y="87.7" class="st0" width="9" height="9"/>
<rect x="45.3" y="87.7" class="st0" width="9" height="9"/>
<rect x="7.4" y="97.1" class="st0" width="9" height="9"/>
<rect x="16.9" y="97.1" class="st0" width="9" height="9"/>
<rect x="26.3" y="97.1" class="st0" width="9" height="9"/>
<rect x="35.8" y="97.1" class="st0" width="9" height="9"/>
<rect x="45.3" y="97.1" class="st0" width="9" height="9"/>
<rect x="7.4" y="106.6" class="st0" width="9" height="9"/>
<rect x="16.9" y="106.6" class="st0" width="9" height="9"/>
<rect x="26.3" y="106.6" class="st0" width="9" height="9"/>
<rect x="35.8" y="106.6" class="st0" width="9" height="9"/>
<rect x="45.3" y="106.6" class="st0" width="9" height="9"/>
<rect x="54.7" y="78.2" class="st0" width="9" height="9"/>
<rect x="64.2" y="78.2" class="st0" width="9" height="9"/>
<rect x="73.7" y="78.2" class="st1" width="9" height="9"/>
<rect x="83.1" y="78.2" class="st1" width="9" height="9"/>
<rect x="92.6" y="78.2" class="st1" width="9" height="9"/>
<rect x="54.7" y="87.7" class="st0" width="9" height="9"/>
<rect x="64.2" y="87.7" class="st0" width="9" height="9"/>
<rect x="73.7" y="87.7" class="st1" width="9" height="9"/>
<rect x="83.1" y="87.7" class="st1" width="9" height="9"/>
<rect x="92.6" y="87.7" class="st1" width="9" height="9"/>
<rect x="54.7" y="97.1" class="st0" width="9" height="9"/>
<rect x="64.2" y="97.1" class="st0" width="9" height="9"/>
<rect x="73.7" y="97.1" class="st1" width="9" height="9"/>
<rect x="83.1" y="97.1" class="st1" width="9" height="9"/>
<rect x="92.6" y="97.1" class="st1" width="9" height="9"/>
<rect x="54.7" y="106.6" class="st0" width="9" height="9"/>
<rect x="64.2" y="106.6" class="st0" width="9" height="9"/>
<rect x="73.7" y="106.6" class="st1" width="9" height="9"/>
<rect x="83.1" y="106.6" class="st1" width="9" height="9"/>
<rect x="92.6" y="106.6" class="st1" width="9" height="9"/>
<rect x="54.7" y="40.4" class="st0" width="9" height="9"/>
<rect x="64.2" y="40.4" class="st1" width="9" height="9"/>
<rect x="73.7" y="40.4" class="st1" width="9" height="9"/>
<rect x="83.1" y="40.4" class="st1" width="9" height="9"/>
<rect x="102.1" y="59.3" class="st1" width="9" height="9"/>
<rect x="54.7" y="49.9" class="st0" width="9" height="9"/>
<rect x="64.2" y="49.9" class="st0" width="9" height="9"/>
<rect x="73.7" y="49.9" class="st1" width="9" height="9"/>
<rect x="83.1" y="49.9" class="st1" width="9" height="9"/>
<rect x="111.5" y="59.3" class="st1" width="9" height="9"/>
<rect x="54.7" y="59.3" class="st0" width="9" height="9"/>
<rect x="64.2" y="59.3" class="st0" width="9" height="9"/>
<rect x="73.7" y="59.3" class="st1" width="9" height="9"/>
<rect x="83.1" y="59.3" class="st1" width="9" height="9"/>
<rect x="92.6" y="59.3" class="st1" width="9" height="9"/>
<rect x="54.7" y="68.8" class="st0" width="9" height="9"/>
<rect x="64.2" y="68.8" class="st0" width="9" height="9"/>
<rect x="73.7" y="68.8" class="st1" width="9" height="9"/>
<rect x="83.1" y="68.8" class="st1" width="9" height="9"/>
<rect x="92.6" y="68.8" class="st1" width="9" height="9"/>
<rect x="102.1" y="78.2" class="st1" width="9" height="9"/>
<rect x="111.5" y="78.2" class="st1" width="9" height="9"/>
<rect x="121" y="78.2" class="st1" width="9" height="9"/>
<rect x="102.1" y="87.7" class="st1" width="9" height="9"/>
<rect x="111.5" y="87.7" class="st1" width="9" height="9"/>
<rect x="121" y="87.7" class="st1" width="9" height="9"/>
<rect x="102.1" y="97.1" class="st1" width="9" height="9"/>
<rect x="111.5" y="97.1" class="st1" width="9" height="9"/>
<rect x="121" y="97.1" class="st1" width="9" height="9"/>
<rect x="102.1" y="106.6" class="st1" width="9" height="9"/>
<rect x="111.5" y="106.6" class="st1" width="9" height="9"/>
<rect x="121" y="106.6" class="st1" width="9" height="9"/>
<rect x="102.1" y="68.8" class="st1" width="9" height="9"/>
<rect x="111.5" y="68.8" class="st1" width="9" height="9"/>
<rect x="121" y="68.8" class="st1" width="9" height="9"/>
<rect x="130.5" y="78.2" class="st1" width="9" height="9"/>
<rect x="130.5" y="87.7" class="st1" width="9" height="9"/>
<rect x="130.5" y="97.1" class="st1" width="9" height="9"/>
<rect x="130.5" y="106.6" class="st1" width="9" height="9"/>
<rect x="130.5" y="68.8" class="st1" width="9" height="9"/>
<rect x="94.5" y="40.4" class="st2" width="64.1" height="21"/>
<text transform="matrix(1 0 0 1 94.5138 55.2512)" class="st3 st4 st5">55%</text>
<rect x="122.1" y="59.1" class="st2" width="90.1" height="47.3"/>
<text transform="matrix(1 0 0 1 122.0719 62.0485)"><tspan x="0" y="0" class="st3 st4 st6">rent  </tspan><tspan x="0" y="4.8" class="st3 st4 st6">burdened</tspan></text>
<g>
	<g>
		<defs>
			<rect id="SVGID_1_" x="112.7" y="24.4" width="173" height="103.8"/>
		</defs>
		<clipPath id="SVGID_00000027593049912799472460000010137916176004304272_">
			<use xlink:href="#SVGID_1_"  style="overflow:visible;"/>
		</clipPath>
		
			<path style="clip-path:url(#SVGID_00000027593049912799472460000010137916176004304272_);fill-rule:evenodd;clip-rule:evenodd;fill:#156082;" d="
			M199.4,42.3c19.2,0,34.8,15.6,34.8,34.8c0,6.1-1.6,12.1-4.7,17.4l-30.2-17.4V42.3z"/>
	</g>
	<g>
		<defs>
			<rect id="SVGID_00000113332426928959095530000005061001282156456884_" x="113.4" y="25.8" width="173" height="103.8"/>
		</defs>
		<clipPath id="SVGID_00000044161084585199277460000016241108519745490068_">
			<use xlink:href="#SVGID_00000113332426928959095530000005061001282156456884_"  style="overflow:visible;"/>
		</clipPath>
		
			<path style="clip-path:url(#SVGID_00000044161084585199277460000016241108519745490068_);fill-rule:evenodd;clip-rule:evenodd;fill:#156082;" d="
			M230,93.8c-9.6,16.7-30.9,22.4-47.6,12.8c-5.3-3.1-9.7-7.5-12.8-12.8l30.2-17.4L230,93.8z"/>
	</g>
	<g>
		<defs>
			<rect id="SVGID_00000136391523567766954740000018115501333929765511_" x="111.5" y="23" width="173" height="103.8"/>
		</defs>
		<clipPath id="SVGID_00000044152551703644015220000000761149905967248035_">
			<use xlink:href="#SVGID_00000136391523567766954740000018115501333929765511_"  style="overflow:visible;"/>
		</clipPath>
		
			<path style="clip-path:url(#SVGID_00000044152551703644015220000000761149905967248035_);fill-rule:evenodd;clip-rule:evenodd;fill:#963232;" d="
			M168.1,93.1c-9.6-16.7-3.9-38,12.8-47.6c5.3-3.1,11.3-4.7,17.4-4.7v34.8L168.1,93.1z"/>
	</g>
</g>
<path d="M210.2,71"/>
<path class="st10" d="M191.5,56.6l-8-4.6c-0.1,0-0.2,0-0.3,0l-8,4.6c-0.7,0.4-0.9,1.3-0.6,2c0.4,0.7,1.3,0.9,2,0.5c0,0,0,0,0,0
	l0.1-0.1v3.4h-0.4c-0.8-1.1-2.3-1.3-3.4-0.5c-1.1,0.8-1.3,2.3-0.5,3.4c0.8,1.1,2.3,1.3,3.4,0.5c0.2-0.1,0.4-0.3,0.5-0.5h0.4v2.2
	c0,0.5,0.4,0.9,0.9,0.9H189c0.5,0,0.9-0.4,0.9-0.9V59l0.1,0.1c0.2,0.1,0.5,0.2,0.7,0.2c0.8,0,1.5-0.6,1.5-1.4
	C192.2,57.3,191.9,56.9,191.5,56.6z M176.2,64.8c-0.1,0-0.2,0-0.2,0.1c-0.6,0.9-1.8,1.1-2.6,0.6c-0.9-0.6-1.1-1.7-0.6-2.6
	c0.6-0.9,1.8-1.1,2.6-0.6c0.2,0.1,0.4,0.3,0.6,0.6c0.1,0.1,0.1,0.1,0.2,0.1h7.3l0.8,0.9l-0.8,0.9h-0.5l-0.6-0.9
	c-0.1-0.1-0.3-0.2-0.4-0.1c0,0,0,0-0.1,0.1l-0.7,0.8l-0.5-0.8c-0.1-0.1-0.1-0.1-0.2-0.1l0,0c-0.1,0-0.2,0-0.2,0.1l-0.5,0.7l-0.5-0.7
	c-0.1-0.1-0.3-0.2-0.4-0.1c0,0-0.1,0-0.1,0.1l-0.6,0.9H176.2z M185.1,67.9h-3.7v-2.7l0.6-0.7l0.5,0.7c0.1,0.1,0.1,0.1,0.2,0.1h0.8
	c0.1,0,0.2,0,0.2-0.1l1-1.2c0.1-0.1,0.1-0.3,0-0.4l-1-1.2c-0.1-0.1-0.1-0.1-0.2-0.1h-2.1v-1.1h3.7V67.9z M177.2,67.6v-2.2h1.1
	c0.1,0,0.2,0,0.2-0.1l0.5-0.7l0.5,0.7c0.1,0.1,0.3,0.2,0.4,0.1c0,0,0.1,0,0.1-0.1l0.5-0.7l0.4,0.7v2.7h-3.3
	C177.4,67.9,177.2,67.8,177.2,67.6z M189.4,67.6c0,0.2-0.1,0.3-0.3,0.3h-3.3v-6.8c0-0.2-0.1-0.3-0.3-0.3h-4.3
	c-0.2,0-0.3,0.1-0.3,0.3l0,0v1.4h-3.7v-3.7l6.1-3.5l6.1,3.5L189.4,67.6z M191.5,58.3c-0.2,0.4-0.8,0.6-1.2,0.3l-6.9-3.9
	c-0.1,0-0.2,0-0.3,0l-6.3,3.6c0,0,0,0,0,0l-0.5,0.3c-0.4,0.2-1,0.1-1.2-0.3c-0.2-0.4-0.1-1,0.3-1.2l7.9-4.5l7.9,4.5
	C191.6,57.3,191.8,57.9,191.5,58.3z M174,62.9c-0.5,0-1,0.4-1,1c0,0.5,0.4,1,1,1c0.5,0,1-0.4,1-1c0,0,0,0,0,0
	C175,63.3,174.5,62.9,174,62.9z M174,64.3c-0.2,0-0.4-0.2-0.4-0.4s0.2-0.4,0.4-0.4c0.2,0,0.4,0.2,0.4,0.4l0,0
	C174.4,64.1,174.2,64.3,174,64.3z"/>
<rect x="7.4" y="4.5" class="st2" width="231.7" height="24.7"/>
<text transform="matrix(1 0 0 1 7.3911 12.8706)"><tspan x="0" y="0" class="st11 st12">New York City is facing a housing affordability crisis.</tspan><tspan x="0" y="14.4" class="st11 st12">Every other New York household is “rent burdened”</tspan></text>
<rect x="171.9" y="71" class="st2" width="64.1" height="21"/>
<text transform="matrix(1 0 0 1 171.8553 76.9054)" class="st10 st13 st14">30% +</text>
</svg>
