<?xml version="1.0" encoding="utf-8"?>
<!-- Generator: Adobe Illustrator 28.4.1, SVG Export Plug-In . SVG Version: 6.00 Build 0)  -->
<svg version="1.1" id="Layer_1" xmlns="http://www.w3.org/2000/svg" xmlns:xlink="http://www.w3.org/1999/xlink" x="0px" y="0px"
	 viewBox="0 0 318.3 129.4" style="enable-background:new 0 0 318.3 129.4;" xml:space="preserve">
<style type="text/css">
	.st0{fill-rule:evenodd;clip-rule:evenodd;fill:none;}
	.st1{font-family:'BarlowCondensed-Medium';}
	.st2{font-size:12px;}
	.st3{font-size:5px;}
	.st4{font-size:8px;}
	.st5{fill:#CF8D8B;}
	.st6{fill:#FFFFFF;}
	.st7{fill:#D63434;}
	.st8{opacity:0.6;fill:#FFFFFF;}
</style>
<rect x="8.2" y="15.7" class="st0" width="306.1" height="41"/>
<text transform="matrix(1 0 0 1 8.1505 24.1357)"><tspan x="0" y="0" class="st1 st2">A zoning reform “City of Yes for Housing Opportunity” is in public review, </tspan><tspan x="0" y="14.4" class="st1 st2">and contains various elements that would tackle the housing crisis:</tspan></text>
<rect x="-2.5" y="102.5" class="st0" width="52.9" height="15.6"/>
<text transform="matrix(1 0 0 1 4.6375 106.0015)"><tspan x="0" y="0" class="st1 st3">Universal Affordability </tspan><tspan x="9.7" y="6" class="st1 st3">Preference</tspan></text>
<rect x="93.6" y="101.4" class="st0" width="52.9" height="15.6"/>
<text transform="matrix(1 0 0 1 102.7868 104.8546)" class="st1 st3">Town Center Zoning</text>
<rect x="134.8" y="101.3" class="st0" width="52.9" height="15.6"/>
<text transform="matrix(1 0 0 1 145.487 104.7524)"><tspan x="0" y="0" class="st1 st3">Removing Parking </tspan><tspan x="7.4" y="6" class="st1 st3">Mandates</tspan></text>
<rect x="181.9" y="101" class="st0" width="52.9" height="15.6"/>
<text transform="matrix(1 0 0 1 186.7313 104.5192)" class="st1 st3">Accessory Dwelling Units</text>
<rect x="229.7" y="101.3" class="st0" width="52.9" height="15.6"/>
<text transform="matrix(1 0 0 1 241.7868 104.7524)"><tspan x="0" y="0" class="st1 st3">Transit-Oriented </tspan><tspan x="3" y="6" class="st1 st3">Development</tspan></text>
<rect x="263.1" y="101" class="st0" width="52.9" height="15.6"/>
<text transform="matrix(1 0 0 1 280.5786 104.5192)" class="st1 st3">Campuses</text>
<rect x="42.2" y="103" class="st0" width="52.9" height="15.6"/>
<text transform="matrix(1 0 0 1 53.2625 108.5937)"><tspan x="0" y="0" class="st1 st4">Residential </tspan><tspan x="-1.7" y="9.6" class="st1 st4">Conversions</tspan></text>
<g id="mhAxGz.tif">
	<g>
		<path class="st5" d="M33.1,98.6c-7,0-14,0-21,0c0-8.6,0-17.2,0-25.9c0.1,0,0.3,0,0.4,0c6.7,0,13.5,0,20.2,0c0.4,0,0.5,0.1,0.5,0.5
			c0,8.3,0,16.7,0,25C33.2,98.3,33.1,98.5,33.1,98.6z M22.6,98.4c3.3,0,6.5,0,9.8,0c0.6,0,0.6,0,0.6-0.6c0-5.8,0-11.6,0-17.4
			c0-0.4-0.1-0.5-0.5-0.5c-6.6,0-13.1,0-19.7,0c-0.4,0-0.5,0.1-0.5,0.5c0,5.8,0,11.6,0,17.4c0,0.4,0.2,0.5,0.5,0.5
			C16.1,98.4,19.3,98.4,22.6,98.4z M27.1,76.3c0-0.6,0-1.2,0-1.8c0-0.3-0.1-0.4-0.4-0.4c-0.8,0-1.6,0-2.4,0c-0.3,0-0.4,0.1-0.4,0.4
			c0,1.2,0,2.4,0,3.6c0,0.3,0.1,0.4,0.4,0.4c0.8,0,1.6,0,2.3,0c0.3,0,0.4-0.1,0.4-0.4C27.1,77.4,27.1,76.8,27.1,76.3z M31.8,76.3
			c0-0.6,0-1.2,0-1.8c0-0.3-0.1-0.4-0.4-0.4c-0.8,0-1.5,0-2.3,0c-0.3,0-0.4,0.1-0.4,0.4c0,1.2,0,2.4,0,3.5c0,0.3,0.1,0.4,0.4,0.4
			c0.8,0,1.6,0,2.3,0c0.3,0,0.4-0.1,0.4-0.4C31.8,77.4,31.8,76.9,31.8,76.3z M16.6,76.3c0-0.6,0-1.2,0-1.8c0-0.3-0.1-0.4-0.4-0.4
			c-0.8,0-1.6,0-2.3,0c-0.3,0-0.4,0.1-0.4,0.4c0,1.2,0,2.4,0,3.6c0,0.3,0.1,0.4,0.4,0.4c0.8,0,1.6,0,2.4,0c0.3,0,0.4-0.1,0.4-0.4
			C16.6,77.5,16.6,76.9,16.6,76.3z M21.2,76.3c0-0.6,0-1.2,0-1.8c0-0.3-0.1-0.4-0.4-0.4c-0.8,0-1.6,0-2.3,0c-0.3,0-0.4,0.1-0.4,0.4
			c0,1.2,0,2.4,0,3.6c0,0.3,0.1,0.3,0.3,0.3c0.8,0,1.6,0,2.4,0c0.3,0,0.4-0.1,0.4-0.4C21.2,77.5,21.2,76.9,21.2,76.3z"/>
		<path class="st6" d="M22.6,98.4c-3.3,0-6.5,0-9.8,0c-0.4,0-0.5-0.1-0.5-0.5c0-5.8,0-11.6,0-17.4c0-0.4,0.1-0.5,0.5-0.5
			c6.6,0,13.1,0,19.7,0c0.4,0,0.5,0.1,0.5,0.5c0,5.8,0,11.6,0,17.4c0,0.6,0,0.6-0.6,0.6C29.1,98.4,25.9,98.4,22.6,98.4z M27.3,81
			c-1.1,0-2.2,0-3.3,0c-0.1,0-0.2,0.2-0.2,0.3c0,1.4,0,2.7,0,4.1c0,0.2,0.1,0.3,0.3,0.3c0.9,0,1.9,0,2.8,0c0.3,0,0.4-0.1,0.4-0.4
			c0-0.9,0-1.8,0-2.7C27.3,82.1,27.3,81.6,27.3,81z M32,81c-1.1,0-2.2,0-3.3,0c-0.1,0-0.2,0.2-0.2,0.3c0,1.3,0,2.7,0,4
			c0,0.3,0.1,0.4,0.4,0.4c0.8,0,1.6,0,2.4,0c0.2,0,0.5,0,0.7,0C32,84.1,32,82.6,32,81z M13.3,81c0,1.5,0,3,0,4.5
			c0,0.1,0.2,0.2,0.3,0.2c1,0,1.9,0,2.9,0c0.1,0,0.3-0.2,0.3-0.3c0-1.4,0-2.8,0-4.2c0-0.1-0.2-0.3-0.2-0.3C15.4,81,14.4,81,13.3,81z
			 M21.4,81c-1.2,0-2.3,0-3.4,0c0,0.1,0,0.1,0,0.1c0,1.4,0,2.9,0,4.3c0,0.3,0.2,0.3,0.4,0.3c0.9,0,1.8,0,2.7,0
			c0.3,0,0.4-0.1,0.4-0.4c0-0.8,0-1.5,0-2.3C21.4,82.4,21.4,81.7,21.4,81z M27.3,89.2c0-0.7,0-1.4,0-2.1c0-0.2-0.1-0.3-0.3-0.3
			c-1,0-1.9,0-2.9,0c-0.3,0-0.3,0.1-0.3,0.3c0,1.3,0,2.7,0,4c0,0.2,0.1,0.3,0.3,0.3c0.9,0,1.9,0,2.8,0c0.3,0,0.4-0.1,0.4-0.4
			C27.3,90.5,27.3,89.9,27.3,89.2z M32,86.8c-1.1,0-2.2,0-3.2,0c-0.1,0-0.2,0.2-0.2,0.3c0,1.3,0,2.7,0,4c0,0.3,0.1,0.4,0.4,0.4
			c0.9,0,1.8,0,2.6,0c0.2,0,0.3,0,0.5,0C32,89.9,32,88.4,32,86.8z M27.3,92.7c-1.1,0-2.2,0-3.3,0c-0.1,0-0.2,0.2-0.2,0.3
			c0,1.3,0,2.7,0,4c0,0.3,0.1,0.4,0.4,0.4c0.9,0,1.9,0,2.8,0c0.3,0,0.3-0.1,0.3-0.3c0-0.7,0-1.5,0-2.2
			C27.3,94.2,27.3,93.5,27.3,92.7z M32,92.7c-1.1,0-2.2,0-3.3,0c-0.3,0-0.2,0.2-0.2,0.4c0,1.3,0,2.6,0,3.9c0,0.3,0.1,0.4,0.4,0.4
			c0.9,0,1.8,0,2.7,0c0.1,0,0.3,0,0.4,0C32,95.8,32,94.3,32,92.7z M17.9,89.1c0,0.7,0,1.4,0,2c0,0.3,0.1,0.4,0.4,0.4
			c0.9,0,1.9,0,2.8,0c0.3,0,0.3-0.1,0.3-0.3c0-1.3,0-2.7,0-4c0-0.2-0.1-0.3-0.3-0.3c-0.9,0-1.9,0-2.8,0c-0.3,0-0.4,0.1-0.4,0.4
			C18,87.8,17.9,88.5,17.9,89.1z M16.8,95.1c0-0.7,0-1.3,0-2c0-0.3-0.1-0.4-0.4-0.4c-0.9,0-1.8,0-2.8,0c-0.3,0-0.4,0.1-0.4,0.4
			c0,1.3,0,2.6,0,3.9c0,0.3,0.1,0.4,0.4,0.4c0.9,0,1.8,0,2.7,0c0.3,0,0.4-0.1,0.4-0.4C16.7,96.4,16.8,95.7,16.8,95.1z M21.4,95.1
			c0-0.7,0-1.3,0-2c0-0.3-0.1-0.4-0.4-0.4c-0.9,0-1.8,0-2.7,0c-0.3,0-0.4,0.1-0.4,0.4c0,1.3,0,2.7,0,4c0,0.3,0.1,0.4,0.4,0.4
			c0.9,0,1.8,0,2.7,0c0.3,0,0.4-0.1,0.4-0.4C21.4,96.4,21.4,95.7,21.4,95.1z M16.8,89.2c0-0.7,0-1.4,0-2c0-0.3-0.1-0.4-0.4-0.4
			c-0.9,0-1.9,0-2.8,0c-0.3,0-0.3,0.1-0.3,0.3c0,1.3,0,2.7,0,4c0,0.3,0.1,0.3,0.3,0.3c0.9,0,1.9,0,2.8,0c0.3,0,0.4-0.1,0.4-0.4
			C16.8,90.5,16.8,89.9,16.8,89.2z"/>
		<path class="st6" d="M27.1,76.3c0,0.6,0,1.2,0,1.8c0,0.3-0.1,0.4-0.4,0.4c-0.8,0-1.6,0-2.3,0c-0.3,0-0.4-0.1-0.4-0.4
			c0-1.2,0-2.4,0-3.6c0-0.3,0.1-0.4,0.4-0.4c0.8,0,1.6,0,2.4,0c0.3,0,0.4,0.1,0.4,0.4C27.1,75.1,27.1,75.7,27.1,76.3z"/>
		<path class="st6" d="M31.8,76.3c0,0.6,0,1.2,0,1.8c0,0.3-0.1,0.4-0.4,0.4c-0.8,0-1.6,0-2.3,0c-0.3,0-0.4-0.1-0.4-0.4
			c0-1.2,0-2.4,0-3.5c0-0.3,0.1-0.4,0.4-0.4c0.8,0,1.5,0,2.3,0c0.3,0,0.4,0.1,0.4,0.4C31.8,75.1,31.8,75.7,31.8,76.3z"/>
		<path class="st6" d="M16.6,76.3c0,0.6,0,1.2,0,1.8c0,0.3-0.1,0.4-0.4,0.4c-0.8,0-1.6,0-2.4,0c-0.3,0-0.4-0.1-0.4-0.4
			c0-1.2,0-2.4,0-3.6c0-0.3,0.1-0.4,0.4-0.4c0.8,0,1.6,0,2.3,0c0.3,0,0.4,0.1,0.4,0.4C16.6,75.1,16.6,75.7,16.6,76.3z"/>
		<path class="st6" d="M21.2,76.3c0,0.6,0,1.2,0,1.8c0,0.3-0.1,0.4-0.4,0.4c-0.8,0-1.6,0-2.4,0c-0.2,0-0.4-0.1-0.3-0.3
			c0-1.2,0-2.4,0-3.6c0-0.3,0.1-0.4,0.4-0.4c0.8,0,1.6,0,2.3,0c0.3,0,0.4,0.1,0.4,0.4C21.2,75.1,21.2,75.7,21.2,76.3z"/>
		<path class="st5" d="M27.3,81c0,0.6,0,1.1,0,1.7c0,0.9,0,1.8,0,2.7c0,0.3-0.1,0.4-0.4,0.4c-0.9,0-1.9,0-2.8,0
			c-0.3,0-0.3-0.1-0.3-0.3c0-1.4,0-2.7,0-4.1c0-0.1,0.1-0.3,0.2-0.3C25.1,81,26.2,81,27.3,81z M27.1,83.3c0-0.6,0-1.2,0-1.8
			c0-0.3-0.1-0.4-0.4-0.4c-0.8,0-1.6,0-2.4,0c-0.3,0-0.4,0.1-0.4,0.4c0,1.2,0,2.4,0,3.6c0,0.3,0.1,0.4,0.4,0.4c0.8,0,1.6,0,2.3,0
			c0.3,0,0.4-0.1,0.4-0.4C27.1,84.5,27.1,83.9,27.1,83.3z"/>
		<path class="st5" d="M32,81c0,1.6,0,3.1,0,4.7c-0.3,0-0.5,0-0.7,0c-0.8,0-1.6,0-2.4,0c-0.3,0-0.4-0.1-0.4-0.4c0-1.3,0-2.7,0-4
			c0-0.1,0.1-0.3,0.2-0.3C29.8,81,30.9,81,32,81z M31.8,83.4c0-0.6,0-1.2,0-1.8c0-0.3-0.1-0.4-0.4-0.4c-0.8,0-1.6,0-2.3,0
			c-0.3,0-0.4,0.1-0.4,0.4c0,1.2,0,2.3,0,3.5c0,0.3,0.1,0.4,0.4,0.4c0.8,0,1.6,0,2.3,0c0.3,0,0.4-0.1,0.4-0.4
			C31.8,84.5,31.8,84,31.8,83.4z"/>
		<path class="st5" d="M13.3,81c1.1,0,2.2,0,3.2,0c0.1,0,0.2,0.2,0.2,0.3c0,1.4,0,2.8,0,4.2c0,0.1-0.2,0.3-0.3,0.3c-1,0-1.9,0-2.9,0
			c-0.1,0-0.3-0.2-0.3-0.2C13.3,84,13.3,82.5,13.3,81z M16.6,83.4c0-0.6,0-1.2,0-1.8c0-0.2-0.1-0.4-0.3-0.4c-0.8,0-1.6,0-2.5,0
			c-0.3,0-0.3,0.1-0.3,0.3c0,1.2,0,2.4,0,3.6c0,0.3,0.1,0.4,0.4,0.4c0.8,0,1.6,0,2.4,0c0.3,0,0.4-0.1,0.4-0.4
			C16.6,84.5,16.6,84,16.6,83.4z"/>
		<path class="st5" d="M21.4,81c0,0.7,0,1.4,0,2c0,0.8,0,1.5,0,2.3c0,0.3-0.1,0.4-0.4,0.4c-0.9,0-1.8,0-2.7,0c-0.2,0-0.4,0-0.4-0.3
			c0-1.4,0-2.9,0-4.3c0,0,0-0.1,0-0.1C19.1,81,20.2,81,21.4,81z M21.2,83.4c0-0.6,0-1.2,0-1.8c0-0.3-0.1-0.4-0.4-0.4
			c-0.8,0-1.6,0-2.5,0c-0.2,0-0.3,0.1-0.3,0.3c0,1.2,0,2.4,0,3.7c0,0.3,0.1,0.3,0.4,0.3c0.8,0,1.6,0,2.4,0c0.3,0,0.4-0.1,0.4-0.4
			C21.2,84.5,21.2,83.9,21.2,83.4z"/>
		<path class="st5" d="M27.3,89.2c0,0.7,0,1.3,0,2c0,0.3-0.1,0.4-0.4,0.4c-0.9,0-1.9,0-2.8,0c-0.3,0-0.3-0.1-0.3-0.3
			c0-1.3,0-2.7,0-4c0-0.2,0.1-0.3,0.3-0.3c1,0,1.9,0,2.9,0c0.2,0,0.3,0.1,0.3,0.3C27.3,87.8,27.3,88.5,27.3,89.2z M24,89.2
			c0,0.6,0,1.2,0,1.8c0,0.3,0.1,0.4,0.4,0.4c0.8,0,1.6,0,2.4,0c0.2,0,0.3-0.1,0.3-0.4c0-1.2,0-2.4,0-3.6c0-0.3-0.1-0.4-0.4-0.4
			c-0.8,0-1.6,0-2.4,0c-0.3,0-0.4,0.1-0.4,0.4C24,88,24,88.6,24,89.2z"/>
		<path class="st5" d="M32,86.8c0,1.6,0,3.1,0,4.7c-0.2,0-0.3,0-0.5,0c-0.9,0-1.8,0-2.6,0c-0.3,0-0.4-0.1-0.4-0.4c0-1.3,0-2.7,0-4
			c0-0.1,0.2-0.3,0.2-0.3C29.8,86.8,30.9,86.8,32,86.8z M31.8,89.2c0-0.6,0-1.2,0-1.8c0-0.3-0.1-0.4-0.4-0.4c-0.8,0-1.6,0-2.3,0
			c-0.3,0-0.4,0.1-0.4,0.4c0,1.2,0,2.4,0,3.5c0,0.3,0.1,0.4,0.4,0.4c0.8,0,1.6,0,2.3,0c0.3,0,0.4-0.1,0.4-0.4
			C31.8,90.4,31.8,89.8,31.8,89.2z"/>
		<path class="st5" d="M27.3,92.7c0,0.8,0,1.5,0,2.2c0,0.7,0,1.5,0,2.2c0,0.3-0.1,0.3-0.3,0.3c-0.9,0-1.9,0-2.8,0
			c-0.3,0-0.4-0.1-0.4-0.4c0-1.3,0-2.7,0-4c0-0.1,0.1-0.3,0.2-0.3C25.1,92.7,26.2,92.7,27.3,92.7z M24,95c0,0.6,0,1.2,0,1.8
			c0,0.3,0.1,0.4,0.4,0.4c0.8,0,1.6,0,2.4,0c0.3,0,0.4-0.1,0.4-0.4c0-1.2,0-2.4,0-3.5c0-0.3-0.1-0.4-0.4-0.4c-0.8,0-1.6,0-2.4,0
			c-0.3,0-0.4,0.1-0.4,0.4C24,93.9,24,94.5,24,95z"/>
		<path class="st5" d="M32,92.7c0,1.6,0,3.1,0,4.7c-0.1,0-0.3,0-0.4,0c-0.9,0-1.8,0-2.7,0c-0.3,0-0.4-0.1-0.4-0.4c0-1.3,0-2.6,0-3.9
			c0-0.2,0-0.4,0.2-0.4C29.8,92.7,30.8,92.7,32,92.7z M31.8,95.1c0-0.6,0-1.2,0-1.8c0-0.3-0.1-0.4-0.4-0.4c-0.8,0-1.6,0-2.4,0
			c-0.3,0-0.4,0.1-0.4,0.4c0,1.2,0,2.4,0,3.6c0,0.3,0.1,0.4,0.4,0.4c0.8,0,1.6,0,2.4,0c0.3,0,0.4-0.1,0.4-0.4
			C31.8,96.2,31.8,95.7,31.8,95.1z"/>
		<path class="st5" d="M17.9,89.1c0-0.7,0-1.3,0-2c0-0.3,0.1-0.4,0.4-0.4c0.9,0,1.9,0,2.8,0c0.3,0,0.3,0.1,0.3,0.3c0,1.3,0,2.7,0,4
			c0,0.2-0.1,0.3-0.3,0.3c-0.9,0-1.9,0-2.8,0c-0.3,0-0.4-0.1-0.4-0.4C18,90.5,17.9,89.8,17.9,89.1z M21.2,89.2c0-0.6,0-1.2,0-1.8
			c0-0.3-0.1-0.4-0.4-0.4c-0.8,0-1.6,0-2.4,0c-0.3,0-0.4,0.1-0.4,0.4c0,1.2,0,2.4,0,3.6c0,0.3,0.1,0.4,0.4,0.4c0.8,0,1.6,0,2.4,0
			c0.3,0,0.4-0.1,0.4-0.4C21.2,90.4,21.2,89.8,21.2,89.2z"/>
		<path class="st5" d="M16.8,95.1c0,0.6,0,1.3,0,1.9c0,0.3-0.1,0.4-0.4,0.4c-0.9,0-1.8,0-2.7,0c-0.3,0-0.4-0.1-0.4-0.4
			c0-1.3,0-2.6,0-3.9c0-0.3,0.1-0.4,0.4-0.4c0.9,0,1.8,0,2.8,0c0.3,0,0.4,0.1,0.4,0.4C16.8,93.7,16.8,94.4,16.8,95.1z M16.6,95
			c0-0.6,0-1.2,0-1.8c0-0.3-0.1-0.4-0.4-0.4c-0.8,0-1.6,0-2.4,0c-0.3,0-0.4,0.1-0.4,0.4c0,1.2,0,2.4,0,3.5c0,0.3,0.1,0.4,0.4,0.4
			c0.8,0,1.6,0,2.4,0c0.3,0,0.4-0.1,0.4-0.4C16.6,96.3,16.6,95.6,16.6,95z"/>
		<path class="st5" d="M21.4,95.1c0,0.6,0,1.3,0,1.9c0,0.3-0.1,0.4-0.4,0.4c-0.9,0-1.8,0-2.7,0c-0.3,0-0.4-0.1-0.4-0.4
			c0-1.3,0-2.7,0-4c0-0.3,0.1-0.4,0.4-0.4c0.9,0,1.8,0,2.7,0c0.3,0,0.4,0.1,0.4,0.4C21.4,93.7,21.4,94.4,21.4,95.1z M18.1,95.1
			c0,0.6,0,1.2,0,1.7c0,0.3,0.1,0.4,0.4,0.4c0.8,0,1.6,0,2.4,0c0.2,0,0.4-0.1,0.4-0.3c0-1.2,0-2.4,0-3.7c0-0.3-0.1-0.3-0.3-0.3
			c-0.8,0-1.6,0-2.4,0c-0.3,0-0.4,0.1-0.4,0.4C18.1,93.9,18.1,94.5,18.1,95.1z"/>
		<path class="st5" d="M16.8,89.2c0,0.7,0,1.3,0,2c0,0.3-0.1,0.4-0.4,0.4c-0.9,0-1.9,0-2.8,0c-0.3,0-0.3-0.1-0.3-0.3
			c0-1.3,0-2.7,0-4c0-0.3,0.1-0.3,0.3-0.3c0.9,0,1.9,0,2.8,0c0.3,0,0.4,0.1,0.4,0.4C16.8,87.9,16.8,88.5,16.8,89.2z M16.6,89.2
			c0-0.6,0-1.2,0-1.8c0-0.3-0.1-0.4-0.4-0.4c-0.8,0-1.6,0-2.4,0c-0.3,0-0.4,0.1-0.4,0.4c0,1.2,0,2.4,0,3.5c0,0.3,0.1,0.4,0.4,0.4
			c0.8,0,1.6,0,2.4,0c0.3,0,0.4-0.1,0.4-0.4C16.6,90.4,16.6,89.8,16.6,89.2z"/>
		<path class="st5" d="M27.1,83.3c0,0.6,0,1.2,0,1.7c0,0.3-0.1,0.4-0.4,0.4c-0.8,0-1.6,0-2.3,0c-0.3,0-0.4-0.1-0.4-0.4
			c0-1.2,0-2.4,0-3.6c0-0.3,0.1-0.4,0.4-0.4c0.8,0,1.6,0,2.4,0c0.3,0,0.4,0.1,0.4,0.4C27.1,82.2,27.1,82.8,27.1,83.3z"/>
		<path class="st5" d="M31.8,83.4c0,0.6,0,1.1,0,1.7c0,0.3-0.1,0.4-0.4,0.4c-0.8,0-1.6,0-2.3,0c-0.3,0-0.4-0.1-0.4-0.4
			c0-1.2,0-2.3,0-3.5c0-0.3,0.1-0.4,0.4-0.4c0.8,0,1.6,0,2.3,0c0.3,0,0.4,0.1,0.4,0.4C31.8,82.2,31.8,82.8,31.8,83.4z"/>
		<path class="st5" d="M16.6,83.4c0,0.6,0,1.2,0,1.7c0,0.3-0.1,0.4-0.4,0.4c-0.8,0-1.6,0-2.4,0c-0.3,0-0.4-0.1-0.4-0.4
			c0-1.2,0-2.4,0-3.6c0-0.2,0.1-0.4,0.3-0.3c0.8,0,1.6,0,2.5,0c0.3,0,0.3,0.1,0.3,0.4C16.6,82.1,16.6,82.8,16.6,83.4z"/>
		<path class="st5" d="M21.2,83.4c0,0.6,0,1.2,0,1.8c0,0.3-0.1,0.4-0.4,0.4c-0.8,0-1.6,0-2.4,0c-0.2,0-0.4-0.1-0.4-0.3
			c0-1.2,0-2.4,0-3.7c0-0.2,0.1-0.3,0.3-0.3c0.8,0,1.6,0,2.5,0c0.3,0,0.4,0.1,0.4,0.4C21.2,82.2,21.2,82.8,21.2,83.4z"/>
		<path class="st5" d="M24,89.2c0-0.6,0-1.2,0-1.8c0-0.3,0.1-0.4,0.4-0.4c0.8,0,1.6,0,2.4,0c0.3,0,0.4,0.1,0.4,0.4
			c0,1.2,0,2.4,0,3.6c0,0.2-0.1,0.4-0.3,0.4c-0.8,0-1.6,0-2.4,0c-0.3,0-0.4-0.1-0.4-0.4C24,90.4,24,89.8,24,89.2z"/>
		<path class="st5" d="M31.8,89.2c0,0.6,0,1.2,0,1.8c0,0.3-0.1,0.4-0.4,0.4c-0.8,0-1.6,0-2.3,0c-0.3,0-0.4-0.1-0.4-0.4
			c0-1.2,0-2.4,0-3.5c0-0.3,0.1-0.4,0.4-0.4c0.8,0,1.6,0,2.3,0c0.3,0,0.4,0.1,0.4,0.4C31.8,88,31.8,88.6,31.8,89.2z"/>
		<path class="st5" d="M24,95c0-0.6,0-1.2,0-1.8c0-0.3,0.1-0.4,0.4-0.4c0.8,0,1.6,0,2.4,0c0.3,0,0.4,0.1,0.4,0.4c0,1.2,0,2.4,0,3.5
			c0,0.3-0.1,0.4-0.4,0.4c-0.8,0-1.6,0-2.4,0c-0.3,0-0.4-0.1-0.4-0.4C24,96.2,24,95.6,24,95z"/>
		<path class="st5" d="M31.8,95.1c0,0.6,0,1.2,0,1.8c0,0.3-0.1,0.4-0.4,0.4c-0.8,0-1.6,0-2.4,0c-0.3,0-0.4-0.1-0.4-0.4
			c0-1.2,0-2.4,0-3.6c0-0.3,0.1-0.4,0.4-0.4c0.8,0,1.6,0,2.4,0c0.3,0,0.4,0.1,0.4,0.4C31.8,93.9,31.8,94.5,31.8,95.1z"/>
		<path class="st5" d="M21.2,89.2c0,0.6,0,1.2,0,1.8c0,0.3-0.1,0.4-0.4,0.4c-0.8,0-1.6,0-2.4,0c-0.3,0-0.4-0.1-0.4-0.4
			c0-1.2,0-2.4,0-3.6c0-0.3,0.1-0.4,0.4-0.4c0.8,0,1.6,0,2.4,0c0.3,0,0.4,0.1,0.4,0.4C21.2,88,21.2,88.6,21.2,89.2z"/>
		<path class="st5" d="M16.6,95c0,0.6,0,1.2,0,1.8c0,0.3-0.1,0.4-0.4,0.4c-0.8,0-1.6,0-2.4,0c-0.3,0-0.4-0.1-0.4-0.4
			c0-1.2,0-2.4,0-3.5c0-0.3,0.1-0.4,0.4-0.4c0.8,0,1.6,0,2.4,0c0.3,0,0.4,0.1,0.4,0.4C16.6,93.9,16.6,94.4,16.6,95z"/>
		<path class="st5" d="M18.1,95.1c0-0.6,0-1.2,0-1.8c0-0.3,0.1-0.4,0.4-0.4c0.8,0,1.6,0,2.4,0c0.2,0,0.3,0.1,0.3,0.3
			c0,1.2,0,2.4,0,3.7c0,0.3-0.1,0.3-0.4,0.3c-0.8,0-1.6,0-2.4,0c-0.3,0-0.4-0.1-0.4-0.4C18.1,96.2,18.1,95.7,18.1,95.1z"/>
		<path class="st5" d="M16.6,89.2c0,0.6,0,1.2,0,1.8c0,0.3-0.1,0.4-0.4,0.4c-0.8,0-1.6,0-2.4,0c-0.3,0-0.4-0.1-0.4-0.4
			c0-1.2,0-2.4,0-3.5c0-0.3,0.1-0.4,0.4-0.4c0.8,0,1.6,0,2.4,0c0.3,0,0.4,0.1,0.4,0.4C16.6,88,16.6,88.6,16.6,89.2z"/>
	</g>
</g>
<g id="_x33_Hj9hz.tif">
	<g>
		<path class="st7" d="M67.4,98.5c-0.9-0.3-1.8-0.5-2.6-0.8c-7.8-3-10.6-13.4-5.2-19.7c1.8-2.1,4.1-3.2,6.8-3.5
			c0.3,0,0.5-0.1,0.8-0.1c0.6,0,0.8-0.3,0.8-0.9c0-0.5,0-0.9,0-1.5c0.3,0.2,0.5,0.2,0.6,0.3c2.1,2,4.1,4,6.2,6c0.4,0.3,0.5,0.6,0,1
			c-2.1,2-4.2,4.1-6.4,6.2c-0.1,0.1-0.2,0.1-0.5,0.3c0-1,0-1.9,0-2.9c-0.3,0.2-0.5,0.2-0.6,0.3c-2.1,2-4.2,4.1-6.3,6.1
			c-0.4,0.4-0.4,0.7,0,1c2.1,2.1,4.2,4.1,6.4,6.2c0.1,0.1,0.2,0.1,0.5,0.3c0-0.5,0.1-0.9,0.1-1.3c-0.1-0.7,0.2-1.1,1-1.1
			c2.7-0.2,5.1-1.2,7-3.2c1.6-1.6,2.5-3.7,2.9-5.9c1.1-5.8-1.9-11.3-6.6-13.8c-1.8-1-3.7-1.7-5.8-1.6c-0.2,0-0.4-0.1-0.6-0.3
			c3.7-0.4,7.2,0.3,10.3,2.4c0.8,0.6,1.6,1.2,2.3,1.9c0.4,0.3,0.6,0.4,1,0.1c0.8-0.7,1.7-1.2,2.5-1.9c0.5-0.4,0.8-0.4,1.3,0
			c3.6,2.8,7.2,5.5,10.8,8.3c1.6,1.3,3.3,2.5,4.9,3.8c0.3,0.2,0.5,0.4,0.8,0.9c-0.3,0-0.6,0-0.9,0c-1,0.1-2,0.1-3.1,0.2
			c-0.1,1-0.1,2-0.1,3.1c0,3.3,0,6.6,0,9.8c0,1.2,0,1.2-1.1,1.2c-3.7,0-7.3-0.1-11-0.1c-5.2,0-10.4,0.1-15.5,0.1
			c-6,0-11.9-0.1-17.9-0.1c-1.4,0-2.8,0-4.2,0c-0.3,0-0.6,0-0.9-0.1c0-3.9,0-7.8,0-11.8c0.7,0,1.5,0,2.2,0c1.2,0,1.3-0.1,1.3-1.2
			c0-6.8,0-13.6,0-20.4c0-0.6-0.1-1.1,0.8-1.1c0.1,0,0.4-0.4,0.4-0.6c0.1-0.4,0-0.8,0-1.2c0-0.6,0-1.1,0.8-1.1
			c0.2,0,0.5-0.5,0.5-0.8c0-0.9,0-1.5,1.2-1.4c0.5,0.1,0.7-0.4,0.6-0.8c-0.1-0.8,0.3-1,1-0.9c2.4,0,4.9,0,7.3,0c0.6,0,1,0.2,0.9,0.9
			c-0.1,0.6,0.2,1,0.8,0.9c0.5,0,0.7,0.2,0.6,0.7c0,0.2,0,0.5,0,0.7c0,0.5,0.1,0.7,0.6,0.7c0.5,0,0.7,0.2,0.6,0.7c0,0.4,0,0.8,0,1.2
			c0,0.6,0,1,0.8,1c0.1,0,0.3,0.3,0.4,0.4c0.1,0.4,0,0.8-0.2,1.2c0-0.3,0-0.5-0.1-0.8c-0.1-0.2-0.3-0.6-0.5-0.6
			c-0.6,0-0.7-0.4-0.7-0.9c0-0.3,0-0.7,0-1c0-0.6-0.1-1-0.8-1.1c-0.2,0-0.4-0.5-0.4-0.8c0-0.8,0-1.4-1.1-1.4c-0.1,0-0.4-0.4-0.4-0.6
			c-0.1-1.1-0.1-1.1-1.2-1.1c-2.2,0-4.3,0-6.5,0c-0.7,0-1.1,0.2-1,1c0.1,0.6-0.2,0.9-0.8,0.8c-0.7-0.1-1,0.3-1,1
			c0,0.6,0.1,1.3-0.9,1.3c-0.1,0-0.4,0.4-0.4,0.6c-0.1,0.4,0,0.9,0,1.3c0,0.5,0,0.9-0.7,0.9c-0.2,0-0.4,0.3-0.4,0.5
			c-0.1,0.2,0,0.5,0,0.8c0,6.8,0,13.6,0,20.3c0,0.8-0.2,1.1-1,1c-0.6-0.1-1.2,0-1.8,0c-0.7,0-0.9,0.2-0.9,0.9c0,2.4,0,4.8,0,7.2
			c0,0.7,0,1.3,0,2c0,1.2,0.1,1.3,1.2,1.3c4.4,0,8.8,0,13.2,0c2.4,0,4.7-0.1,7.1-0.1c0.3,0,0.6-0.1,0.9-0.1
			C67.4,98.6,67.4,98.5,67.4,98.5z M85.2,94.2c0-1.2,0-2.5,0-3.7c0-0.2,0-0.5-0.1-0.7c-0.3-0.5-3.3-0.4-3.6,0.1
			c-0.1,0.1-0.1,0.2-0.2,0.4c-0.5,0.9-1,1.8-1.5,2.7c-0.2,0.3-0.3,0.8-0.4,1.1c0,1.3,0,2.7,0,4c0,0.6,0.2,0.8,0.8,0.8
			c1.3,0,2.7,0,4,0c0.7,0,0.9-0.3,0.9-0.9C85.2,96.7,85.2,95.4,85.2,94.2z M45.3,98.8H45V87.6h0.4V98.8z"/>
		<path class="st6" d="M85.2,94.2c0,1.2,0,2.5,0,3.7c0,0.7-0.3,0.9-0.9,0.9c-1.3,0-2.7,0-4,0c-0.6,0-0.8-0.3-0.8-0.8
			c0-1.3,0-2.7,0-4c0-0.4,0.2-0.8,0.4-1.1c0.5-0.9,1-1.8,1.5-2.7c0.1-0.1,0.1-0.2,0.2-0.4c0.3-0.5,3.3-0.6,3.6-0.1
			c0.1,0.2,0.1,0.5,0.1,0.7C85.2,91.7,85.2,92.9,85.2,94.2z"/>
	</g>
</g>
<g id="isuN32.tif">
	<g>
		<path class="st5" d="M130.8,92.1c-0.8,0.1-0.8,0.1-0.8,1c0,1.6,0,3.3,0,4.9c0,0.2,0,0.3,0,0.5c-7.2,0-14.3,0-21.5,0
			c0-0.2,0-0.4,0-0.5c0-1.7,0-3.5,0-5.2c0-0.7,0.1-0.7-0.6-0.7c-0.1,0-0.2,0-0.3,0c0.2-0.5,0.4-0.9,0.6-1.3c0.2-0.4,0.3-0.9,0.3-1.4
			c0-6,0-11.9,0-17.9c0-0.6,0-0.6,0.6-0.6c6.8,0,13.6,0,20.4,0c0.5,0,0.6,0.1,0.6,0.6c0,5.9,0,11.9,0,17.8c0,0.7,0.1,1.3,0.4,1.9
			C130.5,91.5,130.7,91.8,130.8,92.1z M124.5,92.2c-1.6,0-3.1,0-4.7,0c-0.4,0-0.6,0.1-0.5,0.6c0,1.7,0,3.4,0,5.1
			c0,0.5,0.2,0.5,0.6,0.5c0.4,0,0.6,0,0.6-0.5c0-1.4,0-2.8,0-4.2c0-0.3,0.1-0.4,0.4-0.4c0.7,0,1.3,0,2,0c0.4,0,0.5,0.1,0.5,0.5
			c0,1.4,0,2.8,0,4.2c0,0.3,0.1,0.4,0.4,0.4c1.9,0,3.8,0,5.6,0c0.3,0,0.4-0.1,0.4-0.4c0-1.8,0-3.5,0-5.3c0-0.3-0.1-0.5-0.5-0.5
			C127.7,92.2,126.1,92.2,124.5,92.2z M113.9,92.2c-1.5,0-3.1,0-4.6,0c-0.4,0-0.6,0.1-0.6,0.5c0,1.7,0,3.4,0,5.2
			c0,0.3,0.1,0.5,0.5,0.5c0.4,0,0.5-0.1,0.5-0.5c0-1.4,0-2.8,0-4.1c0-0.3,0.1-0.5,0.5-0.5c0.6,0,1.3,0,1.9,0c0.4,0,0.5,0.1,0.5,0.5
			c0,1.4,0,2.7,0,4.1c0,0.4,0.1,0.5,0.5,0.5c1.9,0,3.8,0,5.6,0c0.4,0,0.5-0.1,0.5-0.5c0-1.7,0-3.5,0-5.2c0-0.4-0.1-0.5-0.5-0.5
			C117,92.2,115.4,92.2,113.9,92.2z M107.9,92c0.3,0,0.5,0,0.6,0c3.1,0,6.3,0,9.4,0c1.2,0,1.2,0,1.1-1.2c0-0.3-0.1-0.4-0.4-0.4
			c-3.2,0-6.5,0-9.7,0c-0.1,0-0.3,0.1-0.4,0.2C108.3,91,108.1,91.4,107.9,92z M130.5,91.9c-0.2-0.4-0.3-0.7-0.4-1
			c-0.2-0.5-0.5-0.6-1-0.6c-2.9,0-5.8,0-8.7,0c-1.2,0-1-0.2-1.1,1.1c0,0.4,0.1,0.6,0.5,0.6c3.4,0,6.8,0,10.1,0
			C130.1,92,130.2,92,130.5,91.9z M113.2,80.1c0-0.6,0-1.2,0-1.8c0-0.3-0.1-0.4-0.4-0.4c-0.9,0-1.8,0-2.8,0c-0.3,0-0.4,0.1-0.4,0.4
			c0,1.2,0,2.4,0,3.6c0,0.3,0.1,0.4,0.4,0.4c0.9,0,1.8,0,2.8,0c0.3,0,0.4-0.1,0.4-0.4C113.2,81.3,113.2,80.7,113.2,80.1z M120.5,80
			c0,0.6,0,1.2,0,1.7c0,0.3,0.1,0.5,0.4,0.5c0.9,0,1.7,0,2.6,0c0.3,0,0.4-0.1,0.4-0.4c0-1.2,0-2.4,0-3.6c0-0.3-0.1-0.4-0.4-0.4
			c-0.9,0-1.8,0-2.7,0c-0.3,0-0.4,0.1-0.4,0.5C120.5,78.9,120.5,79.5,120.5,80z M113.2,85.7c0-0.6,0-1.2,0-1.8
			c0-0.3-0.1-0.4-0.4-0.4c-0.9,0-1.8,0-2.7,0c-0.3,0-0.4,0.1-0.4,0.4c0,1.2,0,2.4,0,3.6c0,0.3,0.1,0.4,0.4,0.4c0.9,0,1.8,0,2.7,0
			c0.3,0,0.4-0.1,0.4-0.4C113.2,86.9,113.2,86.3,113.2,85.7z M113.2,74.4c0-0.6,0-1.2,0-1.7c0-0.3-0.1-0.5-0.4-0.5
			c-0.9,0-1.8,0-2.7,0c-0.3,0-0.4,0.1-0.4,0.4c0,1.2,0,2.3,0,3.5c0,0.3,0.1,0.4,0.5,0.4c0.9,0,1.7,0,2.6,0c0.3,0,0.4-0.1,0.4-0.5
			C113.2,75.6,113.2,75,113.2,74.4z M124,74.4c0-0.6,0-1.2,0-1.7c0-0.3-0.1-0.5-0.5-0.5c-0.9,0-1.7,0-2.6,0c-0.3,0-0.5,0.1-0.5,0.4
			c0,1.2,0,2.3,0,3.5c0,0.3,0.1,0.4,0.4,0.4c0.9,0,1.8,0,2.7,0c0.3,0,0.4-0.1,0.4-0.4C123.9,75.6,124,75,124,74.4z M128.7,74.5
			c0-0.6,0-1.2,0-1.8c0-0.3-0.1-0.5-0.4-0.5c-0.9,0-1.8,0-2.7,0c-0.3,0-0.4,0.1-0.4,0.4c0,1.2,0,2.4,0,3.6c0,0.3,0.1,0.4,0.4,0.4
			c0.9,0,1.8,0,2.7,0c0.3,0,0.4-0.1,0.4-0.5C128.7,75.6,128.7,75,128.7,74.5z M118,80.1c0-0.6,0-1.2,0-1.9c0-0.3-0.1-0.4-0.4-0.4
			c-0.9,0-1.8,0-2.8,0c-0.3,0-0.4,0.1-0.4,0.4c0,1.2,0,2.4,0,3.6c0,0.3,0.1,0.4,0.4,0.4c0.9,0,1.8,0,2.8,0c0.3,0,0.4-0.1,0.4-0.4
			C118,81.3,118,80.7,118,80.1z M125.3,80c0,0.6,0,1.2,0,1.8c0,0.3,0.1,0.4,0.4,0.4c0.9,0,1.8,0,2.7,0c0.3,0,0.4-0.1,0.4-0.4
			c0-1.2,0-2.4,0-3.6c0-0.3-0.1-0.4-0.4-0.4c-0.9,0-1.8,0-2.7,0c-0.3,0-0.4,0.1-0.4,0.4C125.3,78.8,125.3,79.4,125.3,80z M118,85.7
			c0-0.6,0-1.2,0-1.8c0-0.3-0.1-0.4-0.4-0.4c-0.9,0-1.8,0-2.7,0c-0.3,0-0.4,0.1-0.4,0.4c0,1.2,0,2.4,0,3.6c0,0.3,0.1,0.4,0.4,0.4
			c0.9,0,1.8,0,2.7,0c0.3,0,0.4-0.1,0.4-0.4C118,86.9,118,86.3,118,85.7z M124,85.7c0-0.6,0-1.2,0-1.7c0-0.3-0.1-0.5-0.4-0.4
			c-0.9,0-1.8,0-2.7,0c-0.3,0-0.4,0.1-0.4,0.4c0,1.2,0,2.4,0,3.6c0,0.3,0.1,0.4,0.4,0.4c0.9,0,1.8,0,2.7,0c0.3,0,0.4-0.1,0.4-0.4
			C123.9,86.8,124,86.2,124,85.7z M125.3,85.7c0,0.6,0,1.2,0,1.8c0,0.3,0.1,0.4,0.4,0.4c0.9,0,1.7,0,2.6,0c0.3,0,0.5-0.1,0.5-0.4
			c0-1.2,0-2.4,0-3.6c0-0.3-0.1-0.4-0.4-0.4c-0.9,0-1.8,0-2.7,0c-0.3,0-0.4,0.1-0.4,0.4C125.3,84.5,125.3,85.1,125.3,85.7z
			 M118,74.4c0-0.6,0-1.2,0-1.8c0-0.3-0.1-0.4-0.4-0.4c-0.9,0-1.8,0-2.7,0c-0.3,0-0.4,0.1-0.4,0.4c0,1.2,0,2.4,0,3.6
			c0,0.3,0.1,0.4,0.4,0.4c0.9,0,1.7,0,2.6,0c0.4,0,0.5-0.1,0.4-0.5C118,75.6,118,75,118,74.4z M112.3,96c0-0.7,0-1.4,0-2.1
			c0-0.3-0.1-0.4-0.4-0.4c-0.6,0-1.2,0-1.7,0c-0.2,0-0.3,0.1-0.3,0.4c0,1.4,0,2.8,0,4.2c0,0.3,0.1,0.4,0.4,0.4c0.6,0,1.1,0,1.7,0
			c0.3,0,0.4-0.1,0.4-0.4C112.3,97.3,112.3,96.6,112.3,96z M123,96c0-0.7,0-1.4,0-2.1c0-0.3-0.1-0.4-0.4-0.4c-0.5,0-1.1,0-1.6,0
			c-0.3,0-0.4,0.1-0.4,0.4c0,1.4,0,2.8,0,4.2c0,0.3,0.1,0.4,0.4,0.4c0.5,0,1.1,0,1.6,0c0.3,0,0.4-0.1,0.4-0.4
			C123,97.3,123,96.6,123,96z M124.5,90.2c1.6,0,3.2,0,4.8,0c0.3,0,0.5-0.1,0.5-0.5c0-0.4-0.1-0.5-0.5-0.5c-3.2,0-6.3,0-9.5,0
			c-0.4,0-0.5,0.1-0.5,0.5c0,0.4,0.2,0.5,0.5,0.5C121.4,90.1,122.9,90.2,124.5,90.2z M113.9,89.2c-0.1,0-0.2,0-0.3,0
			c-1.5,0-2.9,0-4.4,0c-0.2,0-0.4,0.1-0.5,0.2c-0.2,0.5,0,0.7,0.5,0.7c2.4,0,4.8,0,7.2,0c0.7,0,1.5,0,2.2,0c0.1,0,0.4-0.1,0.4-0.2
			c0.2-0.4,0-0.8-0.5-0.8C117,89.2,115.4,89.2,113.9,89.2z"/>
		<path class="st6" d="M124.5,92.2c1.6,0,3.2,0,4.8,0c0.4,0,0.5,0.1,0.5,0.5c0,1.8,0,3.5,0,5.3c0,0.3-0.1,0.4-0.4,0.4
			c-1.9,0-3.8,0-5.6,0c-0.3,0-0.4-0.1-0.4-0.4c0-1.4,0-2.8,0-4.2c0-0.4-0.1-0.5-0.5-0.5c-0.7,0-1.3,0-2,0c-0.3,0-0.4,0.1-0.4,0.4
			c0,1.4,0,2.8,0,4.2c0,0.5-0.2,0.5-0.6,0.5c-0.4,0-0.6,0-0.6-0.5c0-1.7,0-3.4,0-5.1c0-0.4,0.1-0.6,0.5-0.6
			C121.4,92.2,123,92.2,124.5,92.2z M126.4,93.3c-0.7,0-1.3,0-2,0c-0.3,0-0.4,0.1-0.4,0.4c0,0.9,0,1.8,0,2.8c0,0.3,0.1,0.4,0.4,0.4
			c1.3,0,2.7,0,4,0c0.3,0,0.4-0.1,0.4-0.4c0-0.9,0-1.8,0-2.8c0-0.3-0.1-0.4-0.4-0.4C127.7,93.3,127,93.3,126.4,93.3z"/>
		<path class="st6" d="M113.9,92.2c1.6,0,3.1,0,4.7,0c0.4,0,0.5,0.1,0.5,0.5c0,1.7,0,3.5,0,5.2c0,0.4-0.1,0.5-0.5,0.5
			c-1.9,0-3.8,0-5.6,0c-0.4,0-0.5-0.1-0.5-0.5c0-1.4,0-2.7,0-4.1c0-0.4-0.1-0.5-0.5-0.5c-0.6,0-1.3,0-1.9,0c-0.4,0-0.5,0.1-0.5,0.5
			c0,1.4,0,2.8,0,4.1c0,0.4-0.1,0.5-0.5,0.5c-0.4,0-0.5-0.2-0.5-0.5c0-1.7,0-3.4,0-5.2c0-0.4,0.2-0.5,0.6-0.5
			C110.8,92.2,112.3,92.2,113.9,92.2z M115.6,93.3c-0.7,0-1.4,0-2,0c-0.3,0-0.4,0.1-0.4,0.4c0,0.9,0,1.9,0,2.8
			c0,0.3,0.1,0.4,0.4,0.4c1.3,0,2.7,0,4,0c0.3,0,0.4-0.1,0.4-0.4c0-0.9,0-1.9,0-2.8c0-0.3-0.1-0.4-0.4-0.4
			C117,93.3,116.3,93.3,115.6,93.3z"/>
		<path class="st6" d="M107.9,92c0.3-0.6,0.5-1,0.7-1.4c0.1-0.1,0.2-0.2,0.4-0.2c3.2,0,6.5,0,9.7,0c0.3,0,0.4,0.1,0.4,0.4
			c0.1,1.2,0.1,1.2-1.1,1.2c-3.1,0-6.3,0-9.4,0C108.3,92,108.2,92,107.9,92z"/>
		<path class="st6" d="M130.5,91.9c-0.2,0-0.4,0-0.5,0c-3.4,0-6.8,0-10.1,0c-0.4,0-0.6-0.1-0.5-0.6c0-1.2-0.2-1.1,1.1-1.1
			c2.9,0,5.8,0,8.7,0c0.5,0,0.8,0.1,1,0.6C130.1,91.3,130.3,91.6,130.5,91.9z"/>
		<path class="st6" d="M113.2,80.1c0,0.6,0,1.2,0,1.8c0,0.3-0.1,0.4-0.4,0.4c-0.9,0-1.8,0-2.8,0c-0.3,0-0.4-0.1-0.4-0.4
			c0-1.2,0-2.4,0-3.6c0-0.3,0.1-0.4,0.4-0.4c0.9,0,1.8,0,2.8,0c0.3,0,0.4,0.1,0.4,0.4C113.2,78.9,113.2,79.5,113.2,80.1z"/>
		<path class="st6" d="M120.5,80c0-0.6,0-1.2,0-1.7c0-0.3,0.1-0.5,0.4-0.5c0.9,0,1.8,0,2.7,0c0.3,0,0.4,0.1,0.4,0.4
			c0,1.2,0,2.4,0,3.6c0,0.3-0.1,0.4-0.4,0.4c-0.9,0-1.7,0-2.6,0c-0.4,0-0.5-0.1-0.4-0.5C120.5,81.2,120.5,80.6,120.5,80z"/>
		<path class="st6" d="M113.2,85.7c0,0.6,0,1.2,0,1.7c0,0.3-0.1,0.4-0.4,0.4c-0.9,0-1.8,0-2.7,0c-0.3,0-0.4-0.1-0.4-0.4
			c0-1.2,0-2.4,0-3.6c0-0.3,0.1-0.4,0.4-0.4c0.9,0,1.8,0,2.7,0c0.3,0,0.4,0.1,0.4,0.4C113.2,84.5,113.2,85.1,113.2,85.7z"/>
		<path class="st6" d="M113.2,74.4c0,0.6,0,1.2,0,1.7c0,0.3-0.1,0.5-0.4,0.5c-0.9,0-1.7,0-2.6,0c-0.3,0-0.5-0.1-0.5-0.4
			c0-1.2,0-2.3,0-3.5c0-0.3,0.1-0.4,0.4-0.4c0.9,0,1.8,0,2.7,0c0.3,0,0.4,0.1,0.4,0.5C113.2,73.3,113.2,73.8,113.2,74.4z"/>
		<path class="st6" d="M124,74.4c0,0.6,0,1.2,0,1.7c0,0.3-0.1,0.4-0.4,0.4c-0.9,0-1.8,0-2.7,0c-0.3,0-0.4-0.1-0.4-0.4
			c0-1.2,0-2.3,0-3.5c0-0.3,0.1-0.4,0.5-0.4c0.9,0,1.7,0,2.6,0c0.4,0,0.5,0.1,0.5,0.5C123.9,73.3,124,73.9,124,74.4z"/>
		<path class="st6" d="M128.7,74.5c0,0.6,0,1.1,0,1.7c0,0.3-0.1,0.5-0.4,0.5c-0.9,0-1.8,0-2.7,0c-0.3,0-0.4-0.1-0.4-0.4
			c0-1.2,0-2.4,0-3.6c0-0.3,0.1-0.4,0.4-0.4c0.9,0,1.8,0,2.7,0c0.3,0,0.4,0.1,0.4,0.5C128.7,73.3,128.7,73.9,128.7,74.5z"/>
		<path class="st6" d="M118,80.1c0,0.6,0,1.2,0,1.8c0,0.3-0.1,0.4-0.4,0.4c-0.9,0-1.8,0-2.8,0c-0.3,0-0.4-0.1-0.4-0.4
			c0-1.2,0-2.4,0-3.6c0-0.3,0.1-0.4,0.4-0.4c0.9,0,1.8,0,2.8,0c0.3,0,0.4,0.1,0.4,0.4C118,78.8,118,79.5,118,80.1z"/>
		<path class="st6" d="M125.3,80c0-0.6,0-1.2,0-1.8c0-0.3,0.1-0.4,0.4-0.4c0.9,0,1.8,0,2.7,0c0.3,0,0.4,0.1,0.4,0.4
			c0,1.2,0,2.4,0,3.6c0,0.3-0.1,0.4-0.4,0.4c-0.9,0-1.8,0-2.7,0c-0.3,0-0.4-0.1-0.4-0.4C125.3,81.3,125.3,80.6,125.3,80z"/>
		<path class="st6" d="M118,85.7c0,0.6,0,1.2,0,1.8c0,0.3-0.1,0.4-0.4,0.4c-0.9,0-1.8,0-2.7,0c-0.3,0-0.4-0.1-0.4-0.4
			c0-1.2,0-2.4,0-3.6c0-0.3,0.1-0.4,0.4-0.4c0.9,0,1.8,0,2.7,0c0.3,0,0.4,0.1,0.4,0.4C118,84.5,118,85.1,118,85.7z"/>
		<path class="st6" d="M124,85.7c0,0.6,0,1.2,0,1.8c0,0.3-0.1,0.4-0.4,0.4c-0.9,0-1.8,0-2.7,0c-0.3,0-0.4-0.1-0.4-0.4
			c0-1.2,0-2.4,0-3.6c0-0.3,0.1-0.4,0.4-0.4c0.9,0,1.8,0,2.7,0c0.3,0,0.4,0.1,0.4,0.4C123.9,84.5,124,85.1,124,85.7z"/>
		<path class="st6" d="M125.3,85.7c0-0.6,0-1.2,0-1.8c0-0.3,0.1-0.4,0.4-0.4c0.9,0,1.8,0,2.7,0c0.3,0,0.4,0.1,0.4,0.4
			c0,1.2,0,2.4,0,3.6c0,0.3-0.1,0.4-0.5,0.4c-0.9,0-1.7,0-2.6,0c-0.3,0-0.4-0.1-0.4-0.4C125.3,86.9,125.3,86.3,125.3,85.7z"/>
		<path class="st6" d="M118,74.4c0,0.6,0,1.1,0,1.7c0,0.3-0.1,0.5-0.4,0.5c-0.9,0-1.7,0-2.6,0c-0.3,0-0.4-0.1-0.4-0.4
			c0-1.2,0-2.4,0-3.6c0-0.3,0.1-0.4,0.4-0.4c0.9,0,1.8,0,2.7,0c0.3,0,0.4,0.1,0.4,0.4C118,73.3,118,73.8,118,74.4z"/>
		<path class="st6" d="M112.3,96c0,0.7,0,1.4,0,2c0,0.3-0.1,0.4-0.4,0.4c-0.6,0-1.1,0-1.7,0c-0.3,0-0.4-0.1-0.4-0.4
			c0-1.4,0-2.8,0-4.2c0-0.2,0.1-0.4,0.3-0.4c0.6,0,1.2,0,1.7,0c0.3,0,0.4,0.1,0.4,0.4C112.3,94.6,112.3,95.3,112.3,96z"/>
		<path class="st6" d="M123,96c0,0.7,0,1.3,0,2c0,0.3-0.1,0.4-0.4,0.4c-0.5,0-1.1,0-1.6,0c-0.3,0-0.4-0.1-0.4-0.4c0-1.4,0-2.8,0-4.2
			c0-0.3,0.1-0.4,0.4-0.4c0.5,0,1.1,0,1.6,0c0.3,0,0.4,0.1,0.4,0.4C123,94.6,123,95.3,123,96z"/>
		<path class="st6" d="M124.5,90.2c-1.6,0-3.1,0-4.7,0c-0.3,0-0.5-0.1-0.5-0.5c0-0.4,0.1-0.5,0.5-0.5c3.2,0,6.3,0,9.5,0
			c0.4,0,0.5,0.1,0.5,0.5c0,0.4-0.2,0.5-0.5,0.5C127.7,90.1,126.1,90.2,124.5,90.2z"/>
		<path class="st6" d="M113.9,89.2c1.6,0,3.1,0,4.7,0c0.5,0,0.7,0.3,0.5,0.8c0,0.1-0.3,0.2-0.4,0.2c-0.7,0-1.4,0-2.2,0
			c-2.4,0-4.8,0-7.2,0c-0.5,0-0.7-0.3-0.5-0.7c0-0.1,0.3-0.2,0.5-0.2c1.5,0,2.9,0,4.4,0C113.7,89.2,113.8,89.2,113.9,89.2z"/>
		<path class="st5" d="M126.4,93.3c0.7,0,1.3,0,2,0c0.3,0,0.4,0.1,0.4,0.4c0,0.9,0,1.8,0,2.8c0,0.3-0.1,0.4-0.4,0.4
			c-1.3,0-2.7,0-4,0c-0.3,0-0.4-0.1-0.4-0.4c0-0.9,0-1.8,0-2.8c0-0.3,0.1-0.4,0.4-0.4C125,93.3,125.7,93.3,126.4,93.3z M126.4,93.5
			c-0.6,0-1.2,0-1.8,0c-0.3,0-0.4,0.1-0.4,0.4c0,0.8,0,1.5,0,2.3c0,0.3,0.1,0.4,0.5,0.4c1.2,0,2.4,0,3.5,0c0.3,0,0.4-0.1,0.4-0.4
			c0-0.8,0-1.5,0-2.3c0-0.4-0.1-0.5-0.5-0.5C127.5,93.5,126.9,93.5,126.4,93.5z"/>
		<path class="st5" d="M115.6,93.3c0.7,0,1.3,0,2,0c0.3,0,0.4,0.1,0.4,0.4c0,0.9,0,1.9,0,2.8c0,0.3-0.1,0.4-0.4,0.4
			c-1.3,0-2.7,0-4,0c-0.3,0-0.4-0.1-0.4-0.4c0-0.9,0-1.9,0-2.8c0-0.3,0.1-0.4,0.4-0.4C114.3,93.3,114.9,93.3,115.6,93.3z
			 M115.6,96.6c0.6,0,1.2,0,1.8,0c0.3,0,0.4-0.1,0.4-0.4c0-0.8,0-1.6,0-2.4c0-0.2-0.1-0.3-0.3-0.3c-1.2,0-2.5,0-3.7,0
			c-0.3,0-0.4,0.1-0.4,0.4c0,0.8,0,1.6,0,2.4c0,0.3,0.1,0.4,0.4,0.4C114.4,96.6,115,96.6,115.6,96.6z"/>
		<path class="st6" d="M126.4,93.5c0.6,0,1.2,0,1.7,0c0.3,0,0.5,0.1,0.5,0.5c0,0.8,0,1.5,0,2.3c0,0.3-0.1,0.4-0.4,0.4
			c-1.2,0-2.4,0-3.5,0c-0.3,0-0.5-0.1-0.5-0.4c0-0.8,0-1.5,0-2.3c0-0.3,0.1-0.4,0.4-0.4C125.2,93.5,125.8,93.5,126.4,93.5z"/>
		<path class="st6" d="M117.4,96.6c-0.6,0-1.2,0-1.8,0c-0.6,0-1.2,0-1.8,0c-0.3,0-0.4-0.1-0.4-0.4c0-0.8,0-1.6,0-2.4
			c0-0.3,0.1-0.4,0.4-0.4c1.2,0,2.5,0,3.7,0c0.2,0,0.3,0.1,0.3,0.3c0,0.8,0,1.6,0,2.4C117.8,96.5,117.7,96.6,117.4,96.6"/>
	</g>
</g>
<g id="YgBALj.tif">
	<g>
		<path class="st5" d="M169.7,69.9c0,0.3,0,0.5,0,0.7c0,6.6,0,13.2,0,19.8c0,0.7,0,0.7,0.7,0.7c0.6,0,1.1,0,1.7,0
			c0.7,0,1.1,0.3,1.4,0.9c0.1,0.3,0.3,0.7,0.4,1c0.2,0.5,0.3,0.9,0.8,1.2c0.3,0.2,0.4,0.6,0.4,0.9c0.1,0.8,0,1.6,0,2.4
			c0,0.1-0.2,0.4-0.3,0.4c-0.5,0-0.5,0.3-0.5,0.6c0,0.7-0.3,1-0.8,1c-0.6,0-0.9-0.3-0.9-0.9c0-0.7,0-0.7-0.7-0.7c-0.6,0-1.1,0-1.7,0
			c-0.3,0-0.5,0.1-0.5,0.5c0,0.4,0.1,0.9-0.1,1.1c-0.3,0.2-0.8,0.1-1.2,0.1c-4.8,0-9.7,0-14.5,0c-3.4,0-6.8,0-10.2,0
			c-0.4,0-0.6-0.1-0.6-0.6c0-9.6,0-19.1,0-28.7c0-0.4,0.1-0.5,0.5-0.5c8.5,0,17,0,25.5,0C169.4,69.9,169.5,69.9,169.7,69.9z
			 M154.1,98c0-1.1,0-2.1,0-3c0-0.3,0.2-0.6,0.4-0.7c0.4-0.2,0.6-0.6,0.7-1c0.2-0.4,0.3-0.8,0.5-1.2c0.2-0.5,0.6-0.8,1.2-0.8
			c1.5,0,2.9,0,4.4,0c0.6,0,1,0.3,1.2,0.9c0.2,0.5,0.4,1.1,0.6,1.6c0.1,0.2,0.2,0.4,0.4,0.5c0.5,0.3,0.7,0.7,0.7,1.2
			c0,0.7,0,1.5,0,2.2c0,0.3-0.1,0.5-0.4,0.5c-0.1,0-0.3,0.2-0.3,0.3c-0.1,0.3-0.1,0.7-0.1,1c0.9,0,1.7,0,2.5,0
			c0-0.3-0.1-0.6-0.1-0.9c0-0.3-0.1-0.4-0.4-0.4c-0.3,0-0.4-0.1-0.4-0.5c0-0.8,0-1.6,0-2.3c0-0.3,0.2-0.8,0.4-0.9
			c0.6-0.3,0.7-0.9,0.9-1.4c0.7-1.7,0.7-1.7,2.5-1.7c0.5,0,0.6-0.1,0.6-0.6c0-2.9,0-5.8,0-8.7c0-0.7,0-0.7-0.6-0.7
			c-5.1,0-10.3,0-15.4,0c-0.7,0-0.7,0-0.7,0.7c0,5.6,0,11.3,0,16.9c0,0.1,0,0.3,0,0.4c0,0.1,0.2,0.3,0.2,0.3c0.6,0,1.2,0,1.9,0
			c0-0.2-0.1-0.4-0.1-0.6C154.9,98.2,154.8,97.9,154.1,98z M159.2,91.3C159.2,91.3,159.2,91.3,159.2,91.3c-0.7,0-1.4,0-2.1,0
			c-0.6,0-1,0.3-1.2,0.8c-0.2,0.5-0.4,1-0.6,1.6c-0.1,0.2-0.3,0.4-0.5,0.6c-0.2,0.3-0.5,0.5-0.5,0.8c-0.1,0.8,0,1.6,0,2.4
			c0,0.1,0.2,0.3,0.3,0.3c0.5,0,0.6,0.3,0.5,0.7c0,0.1,0,0.3,0,0.4c0,0.3,0.2,0.6,0.6,0.6c0.4,0,0.6-0.2,0.6-0.6c0-0.2,0-0.4,0-0.7
			c0-0.3,0.1-0.4,0.4-0.4c1.6,0,3.2,0,4.9,0c0.1,0,0.3,0.2,0.3,0.3c0.1,0.2,0,0.5,0.1,0.8c0.1,0.3,0.3,0.5,0.7,0.5
			c0.3,0,0.5-0.2,0.6-0.5c0-0.2,0-0.4,0-0.6c0-0.3,0.1-0.5,0.4-0.4c0.3,0,0.4-0.1,0.4-0.4c0-0.7,0-1.3,0-2c0-0.3-0.2-0.8-0.4-0.9
			c-0.4-0.3-0.6-0.6-0.7-1c-0.2-0.4-0.3-0.8-0.5-1.2c-0.2-0.5-0.6-0.8-1.1-0.8C160.5,91.3,159.8,91.3,159.2,91.3z M170.1,91.3
			C170.1,91.3,170.1,91.3,170.1,91.3c-0.7,0-1.3,0-2,0c-0.6,0-1,0.3-1.2,0.9c-0.2,0.5-0.4,1.1-0.6,1.6c-0.1,0.2-0.2,0.4-0.4,0.5
			c-0.3,0.2-0.6,0.5-0.6,0.9c0,0.7,0,1.5,0,2.2c0,0.1,0.2,0.3,0.2,0.3c0.5,0,0.6,0.3,0.6,0.7c0,0.1,0,0.3,0,0.4
			c0.1,0.2,0.3,0.4,0.6,0.5c0.3,0.1,0.6-0.1,0.6-0.4c0-0.2,0.1-0.5,0.1-0.7c0-0.3,0.1-0.4,0.4-0.4c1.6,0,3.2,0,4.8,0
			c0.3,0,0.4,0.1,0.4,0.4c0,0.2,0,0.5,0,0.7c0.1,0.3,0.3,0.5,0.6,0.5c0.2-0.1,0.4-0.3,0.6-0.5c0.1-0.2,0.1-0.4,0.1-0.7
			c0-0.3,0.1-0.5,0.4-0.5c0.3,0,0.4-0.1,0.4-0.4c0-0.7,0-1.4,0-2.1c0-0.3-0.2-0.7-0.4-0.8c-0.4-0.2-0.6-0.6-0.7-1
			c-0.1-0.4-0.3-0.8-0.5-1.2c-0.2-0.6-0.6-0.9-1.2-0.9C171.5,91.3,170.8,91.3,170.1,91.3z M158.7,76.2c0-0.9,0-1.7,0-2.6
			c0-0.3-0.1-0.5-0.5-0.5c-1.2,0-2.4,0-3.6,0c-0.4,0-0.5,0.1-0.5,0.5c0,1.7,0,3.4,0,5.2c0,0.3,0.1,0.5,0.4,0.5c1.2,0,2.4,0,3.6,0
			c0.3,0,0.4-0.1,0.4-0.4C158.7,78,158.7,77.1,158.7,76.2z M146.5,82.5c0,0.1-0.1,0.2-0.1,0.3c0,1.8,0,3.7,0,5.5
			c0,0.3,0.2,0.3,0.4,0.3c1.2,0,2.4,0,3.6,0c0.4,0,0.5-0.1,0.5-0.5c0-1.7,0-3.4,0-5.2c0-0.4-0.1-0.5-0.5-0.5c-1,0-2,0-3,0
			C147.2,82.5,146.9,82.5,146.5,82.5z M146.6,90.3c-0.1,0.1-0.1,0.1-0.1,0.1c0,1.9,0,3.8,0,5.6c0,0.3,0.2,0.3,0.4,0.3
			c1.2,0,2.4,0,3.6,0c0.3,0,0.4-0.1,0.4-0.4c0-1.8,0-3.5,0-5.3c0-0.3-0.1-0.4-0.5-0.4c-0.7,0-1.4,0-2.1,0
			C147.8,90.3,147.1,90.3,146.6,90.3z M146.5,76.2c0,0.9,0,1.8,0,2.6c0,0.3,0.1,0.5,0.4,0.4c1.2,0,2.4,0,3.6,0
			c0.3,0,0.5-0.1,0.5-0.5c0-1.7,0-3.4,0-5.2c0-0.3-0.1-0.5-0.5-0.5c-1.2,0-2.4,0-3.6,0c-0.3,0-0.4,0.1-0.4,0.4
			C146.5,74.5,146.5,75.3,146.5,76.2z M162,76.2c0,0.9,0,1.8,0,2.6c0,0.4,0.1,0.5,0.5,0.5c1.2,0,2.4,0,3.5,0c0.3,0,0.5-0.1,0.5-0.5
			c0-1.7,0-3.4,0-5.2c0-0.3-0.1-0.5-0.5-0.5c-1.2,0-2.4,0-3.5,0c-0.3,0-0.5,0.1-0.5,0.5C162,74.5,162,75.3,162,76.2z M161.8,99.3
			c0-0.3-0.1-0.6-0.1-0.8c0-0.4-0.1-0.5-0.5-0.5c-1.2,0-2.4,0-3.6,0c-0.9,0-0.9,0-1,0.9c0,0.1,0,0.3-0.1,0.4
			C158.3,99.3,160,99.3,161.8,99.3z M167.4,99.4c0.5,0,0.9,0,1.4,0c0.7,0,0.7,0,0.7-0.7c0-0.7,0-0.7-0.7-0.7c-0.2,0-0.3,0-0.5,0
			c-0.6,0-0.8-0.1-0.8,0.7C167.5,98.9,167.5,99.1,167.4,99.4z"/>
		<path class="st6" d="M154.1,98c0.7-0.1,0.8,0.2,0.8,0.8c0,0.2,0,0.4,0.1,0.6c-0.7,0-1.3,0-1.9,0c-0.1,0-0.2-0.2-0.2-0.3
			c0-0.1,0-0.3,0-0.4c0-5.6,0-11.3,0-16.9c0-0.7,0-0.7,0.7-0.7c5.1,0,10.3,0,15.4,0c0.6,0,0.6,0,0.6,0.7c0,2.9,0,5.8,0,8.7
			c0,0.5-0.1,0.6-0.6,0.6c-1.9,0-1.8,0-2.5,1.7c-0.2,0.5-0.3,1.1-0.9,1.4c-0.2,0.1-0.4,0.6-0.4,0.9c-0.1,0.8,0,1.6,0,2.3
			c0,0.3,0.1,0.5,0.4,0.5c0.3,0,0.4,0.1,0.4,0.4c0,0.3,0,0.6,0.1,0.9c-0.8,0-1.7,0-2.5,0c0-0.3,0-0.7,0.1-1c0-0.1,0.2-0.3,0.3-0.3
			c0.4,0,0.4-0.2,0.4-0.5c0-0.7,0-1.5,0-2.2c0-0.5-0.2-0.9-0.7-1.2c-0.2-0.1-0.3-0.3-0.4-0.5c-0.2-0.5-0.4-1.1-0.6-1.6
			c-0.2-0.6-0.6-0.9-1.2-0.9c-1.5,0-2.9,0-4.4,0c-0.6,0-1,0.3-1.2,0.8c-0.2,0.4-0.3,0.8-0.5,1.2c-0.2,0.4-0.3,0.8-0.7,1
			c-0.2,0.1-0.4,0.5-0.4,0.7C154,95.9,154.1,96.9,154.1,98z M166.5,85.6c0-0.9,0-1.8,0-2.6c0-0.3-0.1-0.5-0.4-0.5
			c-1.3,0-2.5,0-3.8,0c-0.3,0-0.4,0.1-0.4,0.4c0,1.8,0,3.6,0,5.4c0,0.3,0.1,0.4,0.4,0.4c1.2,0,2.5,0,3.7,0c0.3,0,0.4-0.1,0.4-0.5
			C166.5,87.3,166.5,86.4,166.5,85.6z M158.8,85.6c0-0.9,0-1.8,0-2.7c0-0.3-0.1-0.5-0.4-0.5c-1.3,0-2.5,0-3.8,0
			c-0.3,0-0.4,0.1-0.4,0.4c0,1.8,0,3.6,0,5.4c0,0.3,0.1,0.4,0.4,0.4c1.2,0,2.5,0,3.7,0c0.4,0,0.5-0.2,0.5-0.5
			C158.8,87.3,158.8,86.5,158.8,85.6z"/>
		<path class="st6" d="M159.2,91.3c0.7,0,1.3,0,2,0c0.6,0,1,0.3,1.1,0.8c0.1,0.4,0.3,0.8,0.5,1.2c0.2,0.4,0.3,0.8,0.7,1
			c0.2,0.1,0.4,0.6,0.4,0.9c0.1,0.7,0,1.3,0,2c0,0.3-0.1,0.5-0.4,0.4c-0.3,0-0.4,0.1-0.4,0.4c0,0.2,0,0.4,0,0.6
			c0,0.3-0.2,0.5-0.6,0.5c-0.4,0-0.6-0.1-0.7-0.5c0-0.2,0-0.5-0.1-0.8c0-0.1-0.2-0.3-0.3-0.3c-1.6,0-3.2,0-4.9,0
			c-0.3,0-0.4,0.1-0.4,0.4c0,0.2,0,0.4,0,0.7c0,0.4-0.3,0.6-0.6,0.6c-0.4,0-0.5-0.2-0.6-0.6c0-0.1,0-0.3,0-0.4c0-0.4,0-0.7-0.5-0.7
			c-0.1,0-0.3-0.2-0.3-0.3c0-0.8-0.1-1.6,0-2.4c0-0.3,0.3-0.5,0.5-0.8c0.1-0.2,0.4-0.3,0.5-0.6c0.2-0.5,0.4-1,0.6-1.6
			c0.2-0.6,0.6-0.8,1.2-0.8C157.8,91.3,158.5,91.3,159.2,91.3C159.2,91.3,159.2,91.3,159.2,91.3z M155.8,94.1c2.3,0,4.5,0,6.7,0
			c-0.2-0.7-0.4-1.3-0.7-1.8c-0.1-0.2-0.4-0.3-0.5-0.4c-1.4,0-2.8,0-4.3,0c-0.2,0-0.4,0.2-0.5,0.3C156.2,92.8,156,93.4,155.8,94.1z
			 M155.7,94.7c-0.5,0-0.8,0.4-0.8,0.8c0,0.4,0.3,0.8,0.8,0.8c0.5,0,0.8-0.4,0.8-0.8C156.5,95.1,156.2,94.7,155.7,94.7z M163.3,95.6
			c0-0.5-0.3-0.8-0.8-0.8c-0.5,0-0.8,0.4-0.8,0.8c0,0.4,0.3,0.8,0.8,0.8C163,96.4,163.3,96,163.3,95.6z"/>
		<path class="st6" d="M170.1,91.3c0.7,0,1.3,0,2,0c0.6,0,1,0.3,1.2,0.9c0.1,0.4,0.3,0.8,0.5,1.2c0.1,0.4,0.3,0.8,0.7,1
			c0.2,0.1,0.4,0.5,0.4,0.8c0.1,0.7,0,1.4,0,2.1c0,0.3-0.1,0.4-0.4,0.4c-0.3,0-0.4,0.1-0.4,0.5c0,0.2,0,0.5-0.1,0.7
			c-0.1,0.2-0.3,0.4-0.6,0.5c-0.3,0.1-0.6-0.1-0.6-0.5c0-0.2,0-0.5,0-0.7c0-0.3-0.1-0.4-0.4-0.4c-1.6,0-3.2,0-4.8,0
			c-0.3,0-0.4,0.1-0.4,0.4c0,0.2,0,0.5-0.1,0.7c-0.1,0.3-0.3,0.5-0.6,0.4c-0.2-0.1-0.4-0.3-0.6-0.5c-0.1-0.1,0-0.3,0-0.4
			c0-0.4,0-0.7-0.6-0.7c-0.1,0-0.2-0.2-0.2-0.3c0-0.7,0-1.5,0-2.2c0-0.4,0.2-0.7,0.6-0.9c0.2-0.1,0.3-0.3,0.4-0.5
			c0.2-0.5,0.4-1.1,0.6-1.6c0.2-0.6,0.6-0.9,1.2-0.9C168.8,91.3,169.5,91.3,170.1,91.3C170.1,91.3,170.1,91.3,170.1,91.3z
			 M173.5,94.1c-0.3-0.7-0.5-1.3-0.8-1.9c-0.1-0.2-0.4-0.3-0.6-0.3c-1.4,0-2.7,0-4.1,0c-0.2,0-0.5,0.1-0.5,0.2
			c-0.3,0.6-0.5,1.3-0.8,2C169,94.1,171.2,94.1,173.5,94.1z M174.3,95.5c0-0.5-0.4-0.8-0.8-0.8c-0.5,0-0.8,0.4-0.8,0.8
			c0,0.5,0.3,0.8,0.8,0.8C174,96.4,174.3,96,174.3,95.5z M166.7,96.4c0.5,0,0.8-0.3,0.8-0.8c0-0.5-0.3-0.8-0.8-0.8
			c-0.5,0-0.8,0.3-0.8,0.8C165.9,96,166.2,96.4,166.7,96.4z"/>
		<path class="st6" d="M158.7,76.2c0,0.9,0,1.7,0,2.6c0,0.3-0.1,0.5-0.4,0.4c-1.2,0-2.4,0-3.6,0c-0.3,0-0.4-0.1-0.4-0.5
			c0-1.7,0-3.4,0-5.2c0-0.3,0.1-0.5,0.5-0.5c1.2,0,2.4,0,3.6,0c0.4,0,0.5,0.2,0.5,0.5C158.7,74.5,158.7,75.4,158.7,76.2z"/>
		<path class="st6" d="M146.5,82.5c0.3,0,0.7,0,1,0c1,0,2,0,3,0c0.4,0,0.5,0.1,0.5,0.5c0,1.7,0,3.4,0,5.2c0,0.3-0.1,0.5-0.5,0.5
			c-1.2,0-2.4,0-3.6,0c-0.2,0-0.4,0-0.4-0.3c0-1.8,0-3.7,0-5.5C146.5,82.7,146.5,82.7,146.5,82.5z"/>
		<path class="st6" d="M146.6,90.3c0.6,0,1.2,0,1.8,0c0.7,0,1.4,0,2.1,0c0.3,0,0.5,0.1,0.5,0.4c0,1.8,0,3.5,0,5.3
			c0,0.3-0.1,0.4-0.4,0.4c-1.2,0-2.4,0-3.6,0c-0.2,0-0.4,0-0.4-0.3c0-1.9,0-3.8,0-5.6C146.5,90.4,146.5,90.4,146.6,90.3z"/>
		<path class="st6" d="M146.5,76.2c0-0.9,0-1.7,0-2.6c0-0.3,0.1-0.5,0.4-0.4c1.2,0,2.4,0,3.6,0c0.4,0,0.5,0.1,0.5,0.5
			c0,1.7,0,3.4,0,5.2c0,0.4-0.1,0.5-0.5,0.5c-1.2,0-2.4,0-3.6,0c-0.3,0-0.4-0.1-0.4-0.4C146.5,77.9,146.5,77.1,146.5,76.2z"/>
		<path class="st6" d="M162,76.2c0-0.8,0-1.7,0-2.5c0-0.4,0.1-0.5,0.5-0.5c1.2,0,2.4,0,3.5,0c0.4,0,0.5,0.1,0.5,0.5
			c0,1.7,0,3.4,0,5.2c0,0.4-0.1,0.5-0.5,0.5c-1.2,0-2.4,0-3.5,0c-0.4,0-0.5-0.1-0.5-0.5C162,77.9,162,77,162,76.2z"/>
		<path class="st6" d="M161.8,99.3c-1.8,0-3.5,0-5.3,0c0-0.2,0-0.3,0.1-0.4c0.1-0.9,0.1-0.9,1-0.9c1.2,0,2.4,0,3.6,0
			c0.4,0,0.6,0.1,0.5,0.5C161.7,98.8,161.7,99,161.8,99.3z"/>
		<path class="st6" d="M167.4,99.4c0-0.3,0.1-0.5,0.1-0.6c0-0.9,0.2-0.7,0.8-0.7c0.2,0,0.3,0,0.5,0c0.7,0,0.7,0,0.7,0.7
			c0,0.7,0,0.7-0.7,0.7C168.4,99.4,167.9,99.4,167.4,99.4z"/>
		<path class="st5" d="M166.5,85.6c0,0.9,0,1.8,0,2.7c0,0.3-0.1,0.5-0.4,0.5c-1.2,0-2.5,0-3.7,0c-0.3,0-0.4-0.1-0.4-0.4
			c0-1.8,0-3.6,0-5.4c0-0.3,0.1-0.4,0.4-0.4c1.3,0,2.5,0,3.8,0c0.3,0,0.4,0.2,0.4,0.5C166.5,83.8,166.5,84.7,166.5,85.6z
			 M162.2,85.6c0,0.8,0,1.6,0,2.4c0,0.4,0.1,0.5,0.5,0.5c1.1,0,2.1,0,3.2,0c0.3,0,0.5-0.1,0.5-0.4c0-1.6,0-3.2,0-4.9
			c0-0.3-0.1-0.5-0.4-0.5c-1.1,0-2.2,0-3.2,0c-0.3,0-0.5,0.1-0.4,0.4C162.2,83.9,162.2,84.7,162.2,85.6z"/>
		<path class="st5" d="M158.8,85.6c0,0.9,0,1.7,0,2.6c0,0.4-0.1,0.5-0.5,0.5c-1.2,0-2.5,0-3.7,0c-0.3,0-0.4-0.1-0.4-0.4
			c0-1.8,0-3.6,0-5.4c0-0.3,0.1-0.4,0.4-0.4c1.3,0,2.5,0,3.8,0c0.3,0,0.4,0.2,0.4,0.5C158.8,83.8,158.8,84.7,158.8,85.6z
			 M154.4,85.5c0,0.8,0,1.6,0,2.4c0,0.4,0.1,0.5,0.5,0.5c1.1,0,2.2,0,3.2,0c0.3,0,0.5-0.1,0.5-0.4c0-1.6,0-3.3,0-4.9
			c0-0.4-0.1-0.5-0.5-0.5c-1.1,0-2.1,0-3.2,0c-0.4,0-0.5,0.2-0.5,0.5C154.4,84,154.4,84.8,154.4,85.5z"/>
		<path class="st5" d="M155.8,94.1c0.2-0.7,0.4-1.3,0.7-1.9c0.1-0.2,0.3-0.3,0.5-0.3c1.4,0,2.8,0,4.3,0c0.2,0,0.5,0.2,0.5,0.4
			c0.3,0.6,0.5,1.2,0.7,1.8C160.2,94.1,158,94.1,155.8,94.1z M156.1,93.9c2.1,0,4,0,6.1,0c-0.2-0.6-0.4-1.1-0.6-1.5
			c-0.1-0.1-0.3-0.2-0.4-0.2c-1.4,0-2.7,0-4.1,0c-0.1,0-0.3,0.1-0.4,0.2C156.5,92.8,156.3,93.3,156.1,93.9z"/>
		<path class="st5" d="M155.7,94.7c0.5,0,0.8,0.3,0.8,0.8c0,0.5-0.4,0.8-0.8,0.8c-0.4,0-0.8-0.3-0.8-0.8
			C154.9,95.1,155.3,94.7,155.7,94.7z M156.3,95.6c0-0.3-0.2-0.6-0.6-0.6c-0.3,0-0.5,0.2-0.5,0.5c0,0.3,0.2,0.6,0.5,0.6
			C156.1,96.1,156.2,95.9,156.3,95.6z"/>
		<path class="st5" d="M163.3,95.6c0,0.5-0.4,0.8-0.8,0.8c-0.4,0-0.8-0.3-0.8-0.8c0-0.5,0.3-0.8,0.8-0.8
			C163,94.7,163.3,95.1,163.3,95.6z M162,95.6c0,0.3,0.2,0.6,0.6,0.6c0.4,0,0.6-0.2,0.5-0.6c0-0.3-0.2-0.5-0.5-0.5
			C162.2,95,162,95.2,162,95.6z"/>
		<path class="st5" d="M173.5,94.1c-2.3,0-4.5,0-6.8,0c0.3-0.7,0.5-1.4,0.8-2c0.1-0.1,0.3-0.2,0.5-0.2c1.4,0,2.7,0,4.1,0
			c0.2,0,0.5,0.1,0.6,0.3C173,92.8,173.2,93.4,173.5,94.1z M167.1,93.9c2.1,0,4,0,6.1,0c-0.2-0.6-0.4-1-0.6-1.5
			c-0.1-0.1-0.3-0.3-0.4-0.3c-1.4,0-2.7,0-4.1,0c-0.1,0-0.3,0.1-0.4,0.2C167.5,92.8,167.3,93.3,167.1,93.9z"/>
		<path class="st5" d="M174.3,95.5c0,0.5-0.3,0.8-0.8,0.8c-0.4,0-0.8-0.3-0.8-0.8c0-0.5,0.3-0.8,0.8-0.8
			C173.9,94.7,174.3,95.1,174.3,95.5z M172.9,95.5c0,0.3,0.2,0.6,0.5,0.6c0.4,0,0.6-0.2,0.6-0.6c0-0.3-0.2-0.5-0.5-0.6
			C173.2,95,173,95.2,172.9,95.5z"/>
		<path class="st5" d="M166.7,96.4c-0.5,0-0.8-0.4-0.8-0.8c0-0.5,0.3-0.8,0.8-0.8c0.5,0,0.8,0.4,0.8,0.8
			C167.5,96,167.1,96.4,166.7,96.4z M166.1,95.6c0,0.3,0.2,0.6,0.5,0.6c0.4,0,0.6-0.2,0.6-0.6c0-0.3-0.2-0.5-0.5-0.6
			C166.4,95,166.2,95.2,166.1,95.6z"/>
		<path class="st5" d="M162.2,85.6c0-0.8,0-1.6,0-2.4c0-0.3,0.1-0.4,0.4-0.4c1.1,0,2.2,0,3.2,0c0.3,0,0.4,0.1,0.4,0.5
			c0,1.6,0,3.3,0,4.9c0,0.3-0.1,0.4-0.5,0.4c-1.1,0-2.1,0-3.2,0c-0.4,0-0.5-0.2-0.5-0.5C162.2,87.1,162.2,86.3,162.2,85.6z"/>
		<path class="st5" d="M154.4,85.5c0-0.8,0-1.6,0-2.3c0-0.4,0.1-0.5,0.5-0.5c1.1,0,2.1,0,3.2,0c0.3,0,0.5,0.1,0.5,0.5
			c0,1.6,0,3.3,0,4.9c0,0.3-0.1,0.4-0.5,0.4c-1.1,0-2.2,0-3.2,0c-0.4,0-0.5-0.2-0.5-0.5C154.4,87.1,154.4,86.3,154.4,85.5z"/>
		<path class="st5" d="M156.1,93.9c0.2-0.6,0.4-1.1,0.6-1.6c0-0.1,0.3-0.2,0.4-0.2c1.4,0,2.7,0,4.1,0c0.1,0,0.4,0.1,0.4,0.2
			c0.2,0.5,0.4,1,0.6,1.5C160.1,93.9,158.2,93.9,156.1,93.9z"/>
		<path class="st6" d="M156.3,95.6c0,0.4-0.2,0.6-0.6,0.6c-0.4,0-0.6-0.2-0.5-0.6c0-0.3,0.2-0.5,0.5-0.5
			C156.1,95,156.2,95.2,156.3,95.6z"/>
		<path class="st6" d="M162,95.6c0-0.4,0.2-0.6,0.6-0.6c0.3,0,0.5,0.2,0.5,0.5c0,0.4-0.2,0.6-0.5,0.6C162.2,96.1,162,95.9,162,95.6z
			"/>
		<path class="st5" d="M167.1,93.9c0.2-0.6,0.4-1.1,0.6-1.6c0-0.1,0.2-0.2,0.4-0.2c1.4,0,2.7,0,4.1,0c0.1,0,0.3,0.1,0.4,0.3
			c0.2,0.5,0.4,0.9,0.6,1.5C171.1,93.9,169.2,93.9,167.1,93.9z"/>
		<path class="st6" d="M172.9,95.5c0-0.3,0.2-0.6,0.6-0.5c0.3,0,0.5,0.2,0.5,0.6c0,0.3-0.2,0.6-0.6,0.6
			C173.1,96.1,173,95.9,172.9,95.5z"/>
		<path class="st6" d="M166.1,95.6c0.1-0.4,0.2-0.6,0.6-0.6c0.3,0,0.5,0.2,0.5,0.6c0,0.3-0.2,0.6-0.6,0.6
			C166.3,96.1,166.2,95.9,166.1,95.6z"/>
	</g>
</g>
<g id="Tjvc7R.tif">
	<g>
		<path class="st5" d="M221.4,98.8c-10.1,0-20.2,0-30.3,0c0-0.1,0-0.3,0-0.4c0-3.7,0-7.3,0-11c0-0.4,0.1-0.5,0.5-0.5
			c4.3,0,8.7,0,13,0c0.6,0,0.6,0,0.6-0.6c0-2.9,0-5.8,0-8.6c0-0.4,0.1-0.7,0.5-0.9c2.5-1.6,5.1-3.2,7.6-4.8c0.2-0.1,0.4-0.1,0.6,0
			c2.4,1.6,4.8,3.3,7.3,4.9c0.3,0.2,0.4,0.4,0.4,0.7c0,6.9,0,13.9,0,20.8C221.5,98.5,221.5,98.7,221.4,98.8z M205.4,87.9
			C205.4,87.9,205.4,87.9,205.4,87.9c0,1.8,0,3.6,0,5.4c0,1.6,0,3.2,0,4.8c0,0.3,0.1,0.4,0.4,0.4c0.4,0,0.8,0,1.3,0
			c0.4,0,0.6-0.1,0.6-0.6c0-2.9,0-5.7,0-8.6c0-0.4,0.1-0.5,0.5-0.5c1.2,0,2.3,0,3.5,0c0.6,0,0.6,0,0.6,0.6c0,2.8,0,5.7,0,8.5
			c0,0.3,0,0.5,0.4,0.5c2.8,0,5.5,0,8.3,0c0.3,0,0.4-0.1,0.4-0.4c0-0.4,0-0.8,0-1.2c0-6.4,0-12.8,0-19.2c0-0.3,0-0.5-0.3-0.7
			c-2.3-1.5-4.7-3.1-7-4.7c-0.3-0.2-0.5-0.2-0.9,0c-2.4,1.5-4.8,3.1-7.2,4.6c-0.3,0.2-0.5,0.4-0.5,0.8
			C205.4,81.2,205.4,84.5,205.4,87.9z M203,94c0-1.4,0-2.9,0-4.3c0-0.4-0.1-0.5-0.5-0.5c-1.1,0-2.2,0-3.3,0c-0.3,0-0.4,0.1-0.4,0.5
			c0,2.8,0,5.7,0,8.5c0,0.4,0.1,0.4,0.5,0.4c1.1,0,2.2,0,3.3,0c0.4,0,0.5-0.1,0.5-0.5C203,96.8,203,95.4,203,94z M212,98.6
			c0-0.2,0-0.3,0-0.4c0-2.9,0-5.7,0-8.6c0-0.4-0.1-0.4-0.5-0.4c-1.1,0-2.1,0-3.2,0c-0.4,0-0.5,0.2-0.5,0.5c0,1.2,0,2.5,0,3.7
			c0,1.6,0,3.1,0,4.7c0,0.4,0.1,0.5,0.5,0.5c0.4,0,0.8,0,1.2,0C210.3,98.6,211.2,98.6,212,98.6z M192.9,92.5c0,1,0,2,0,3
			c0,0.3,0.1,0.4,0.4,0.4c1.1,0,2.1,0,3.2,0c0.3,0,0.4-0.1,0.4-0.4c0-2,0-3.9,0-5.9c0-0.3-0.1-0.4-0.4-0.4c-1.1,0-2.1,0-3.2,0
			c-0.3,0-0.4,0.1-0.4,0.4C192.9,90.5,192.9,91.5,192.9,92.5z"/>
		<path class="st6" d="M205.4,87.9c0-3.4,0-6.7,0-10.1c0-0.4,0.1-0.6,0.5-0.8c2.4-1.5,4.8-3.1,7.2-4.6c0.3-0.2,0.5-0.2,0.9,0
			c2.3,1.6,4.7,3.1,7,4.7c0.3,0.2,0.3,0.5,0.3,0.7c0,6.4,0,12.8,0,19.2c0,0.4,0,0.8,0,1.2c0,0.3-0.1,0.4-0.4,0.4c-2.8,0-5.5,0-8.3,0
			c-0.4,0-0.4-0.2-0.4-0.5c0-2.8,0-5.7,0-8.5c0-0.6,0-0.6-0.6-0.6c-1.2,0-2.3,0-3.5,0c-0.4,0-0.5,0.1-0.5,0.5c0,2.9,0,5.7,0,8.6
			c0,0.4-0.1,0.6-0.6,0.6c-0.4,0-0.8,0-1.3,0c-0.3,0-0.4-0.1-0.4-0.4c0-1.6,0-3.2,0-4.8C205.4,91.5,205.4,89.7,205.4,87.9
			C205.4,87.9,205.4,87.9,205.4,87.9z M207.5,86.1c0.1,0,0.3,0,0.4,0c1.4,0,2.7,0,4.1,0c0.3,0,0.4-0.1,0.4-0.4c0-2,0-4.1,0-6.1
			c0-0.3-0.1-0.4-0.5-0.4c-1.3,0-2.7,0-4,0c-0.4,0-0.5,0.1-0.5,0.5c0,2,0,4,0,6C207.5,85.8,207.5,85.9,207.5,86.1z M214.5,82.7
			c0,1,0,2,0,3c0,0.3,0.1,0.4,0.4,0.4c1.4,0,2.7,0,4.1,0c0.3,0,0.4-0.1,0.4-0.4c0-2,0-4.1,0-6.1c0-0.3-0.1-0.5-0.5-0.5
			c-1.3,0-2.7,0-4,0c-0.4,0-0.5,0.1-0.5,0.5C214.5,80.7,214.5,81.7,214.5,82.7z M214.5,92.5c0,1,0,2,0,3c0,0.3,0.1,0.4,0.4,0.4
			c1.3,0,2.7,0,4,0c0.3,0,0.4-0.1,0.4-0.4c0-2,0-4.1,0-6.1c0-0.3-0.1-0.4-0.4-0.4c-1.3,0-2.7,0-4,0c-0.4,0-0.4,0.1-0.4,0.5
			C214.5,90.5,214.5,91.5,214.5,92.5z"/>
		<path class="st6" d="M203,94c0,1.4,0,2.8,0,4.2c0,0.4-0.1,0.5-0.5,0.5c-1.1,0-2.2,0-3.3,0c-0.3,0-0.5-0.1-0.5-0.4
			c0-2.8,0-5.7,0-8.5c0-0.3,0.1-0.5,0.4-0.5c1.1,0,2.2,0,3.3,0c0.4,0,0.5,0.1,0.5,0.5C203,91.1,203,92.5,203,94z"/>
		<path class="st6" d="M212,98.6c-0.9,0-1.7,0-2.5,0c-0.4,0-0.8,0-1.2,0c-0.4,0-0.5-0.1-0.5-0.5c0-1.6,0-3.1,0-4.7
			c0-1.2,0-2.5,0-3.7c0-0.4,0.1-0.5,0.5-0.5c1.1,0,2.1,0,3.2,0c0.3,0,0.5,0.1,0.5,0.4c0,2.9,0,5.7,0,8.6
			C212.1,98.3,212,98.5,212,98.6z"/>
		<path class="st6" d="M192.9,92.5c0-1,0-2,0-3c0-0.3,0.1-0.4,0.4-0.4c1.1,0,2.1,0,3.2,0c0.3,0,0.4,0.1,0.4,0.4c0,2,0,3.9,0,5.9
			c0,0.3-0.1,0.4-0.4,0.4c-1.1,0-2.1,0-3.2,0c-0.3,0-0.4-0.1-0.4-0.4C192.9,94.5,192.9,93.5,192.9,92.5z"/>
		<path class="st5" d="M207.5,86.1c0-0.2,0-0.3,0-0.4c0-2,0-4,0-6c0-0.4,0.1-0.5,0.5-0.5c1.3,0,2.7,0,4,0c0.3,0,0.5,0.1,0.5,0.4
			c0,2,0,4.1,0,6.1c0,0.3-0.1,0.4-0.4,0.4c-1.4,0-2.7,0-4.1,0C207.8,86.1,207.7,86.1,207.5,86.1z M212.2,82.6c0-1,0-1.9,0-2.9
			c0-0.3-0.1-0.4-0.4-0.4c-1.2,0-2.4,0-3.7,0c-0.3,0-0.5,0.1-0.5,0.4c0,1.9,0,3.8,0,5.7c0,0.3,0.1,0.5,0.5,0.5c1.2,0,2.4,0,3.7,0
			c0.4,0,0.4-0.1,0.4-0.5C212.2,84.5,212.2,83.6,212.2,82.6z"/>
		<path class="st5" d="M214.5,82.7c0-1,0-2,0-3c0-0.3,0.1-0.5,0.5-0.5c1.3,0,2.7,0,4,0c0.3,0,0.5,0.1,0.5,0.5c0,2,0,4.1,0,6.1
			c0,0.3-0.1,0.4-0.4,0.4c-1.4,0-2.7,0-4.1,0c-0.3,0-0.4-0.1-0.4-0.4C214.5,84.7,214.5,83.7,214.5,82.7z M219.2,82.7
			c0-1,0-1.9,0-2.9c0-0.3-0.1-0.5-0.4-0.5c-1.2,0-2.5,0-3.7,0c-0.3,0-0.4,0.1-0.4,0.4c0,1.9,0,3.8,0,5.8c0,0.3,0.1,0.4,0.4,0.4
			c1.2,0,2.4,0,3.7,0c0.3,0,0.5-0.1,0.5-0.5C219.2,84.5,219.2,83.6,219.2,82.7z"/>
		<path class="st5" d="M214.5,92.5c0-1,0-2,0-3c0-0.3,0.1-0.5,0.4-0.5c1.3,0,2.7,0,4,0c0.3,0,0.4,0.1,0.4,0.4c0,2,0,4.1,0,6.1
			c0,0.3-0.1,0.4-0.4,0.4c-1.3,0-2.7,0-4,0c-0.3,0-0.4-0.1-0.4-0.4C214.5,94.5,214.5,93.5,214.5,92.5z M219.2,92.5c0-1,0-1.9,0-2.9
			c0-0.3-0.1-0.4-0.4-0.4c-1.2,0-2.5,0-3.7,0c-0.3,0-0.4,0.1-0.4,0.4c0,1.9,0,3.8,0,5.8c0,0.3,0.1,0.4,0.4,0.4c1.2,0,2.4,0,3.7,0
			c0.3,0,0.5-0.1,0.5-0.5C219.2,94.4,219.2,93.4,219.2,92.5z"/>
		<path class="st6" d="M212.2,82.6c0,0.9,0,1.9,0,2.8c0,0.3-0.1,0.5-0.4,0.5c-1.2,0-2.4,0-3.7,0c-0.3,0-0.5-0.1-0.5-0.5
			c0-1.9,0-3.8,0-5.7c0-0.4,0.1-0.4,0.5-0.4c1.2,0,2.4,0,3.7,0c0.3,0,0.4,0.1,0.4,0.4C212.2,80.7,212.2,81.7,212.2,82.6z"/>
		<path class="st6" d="M219.2,82.7c0,0.9,0,1.9,0,2.8c0,0.3-0.1,0.5-0.5,0.5c-1.2,0-2.4,0-3.7,0c-0.3,0-0.4-0.1-0.4-0.4
			c0-1.9,0-3.8,0-5.8c0-0.3,0.1-0.4,0.4-0.4c1.2,0,2.5,0,3.7,0c0.4,0,0.4,0.2,0.4,0.5C219.2,80.8,219.2,81.7,219.2,82.7z"/>
		<path class="st6" d="M219.2,92.5c0,0.9,0,1.9,0,2.8c0,0.3-0.1,0.5-0.5,0.5c-1.2,0-2.4,0-3.7,0c-0.3,0-0.4-0.1-0.4-0.4
			c0-1.9,0-3.8,0-5.8c0-0.3,0.1-0.4,0.4-0.4c1.2,0,2.5,0,3.7,0c0.3,0,0.4,0.1,0.4,0.4C219.2,90.6,219.2,91.5,219.2,92.5z"/>
	</g>
</g>
<g id="GlBvqt.tif">
	<g>
		<path class="st5" d="M267.4,69.6c0,0.3,0,0.5,0,0.7c0,6.6,0,13.2,0,19.8c0,0.7,0,0.7,0.7,0.8c0.2,0,0.4,0,0.6,0c0,0,0,0.1,0,0.1
			c-0.2,0-0.4,0-0.5,0c-2.6,0-5.2,0-7.8,0c-0.5,0-0.6,0.1-0.6,0.6c0,0.7,0,1.3,0,2c0,0.9-0.3,1.6-1.1,2c-0.1,0-0.1,0.1-0.2,0.2
			c0.7,1.1,1.4,2.1,2.2,3.3c-0.5,0-1,0-1.4,0c-0.1,0-0.3-0.2-0.3-0.3c-0.4-0.6-0.8-1.1-1.2-1.7c-0.1-0.2-0.4-0.3-0.6-0.3
			c-1.2,0-2.4,0-3.6,0c-0.2,0-0.5,0.2-0.6,0.3c-0.4,0.5-0.7,1-1.1,1.6c-0.2,0.3-0.4,0.4-0.7,0.4c-0.3,0-0.7,0-1.1,0
			c0.1-0.2,0.2-0.3,0.3-0.5c0.5-0.8,1.1-1.6,1.6-2.4c0.2-0.3,0.2-0.4-0.1-0.6c-0.7-0.4-1-1-1-1.8c0-0.7,0-1.4,0-2
			c0-0.7,0-0.7-0.7-0.7c-2.6,0-5.1,0-7.7,0c-0.2,0-0.4,0-0.5,0c0-0.1,0-0.1,0-0.2c0.1,0,0.3,0,0.4,0c1,0,1,0.1,1-1c0-1,0-2,0-2.9
			c0-5.6,0-11.1,0-16.7c0-0.7,0-0.7,0.7-0.7c7.6,0,15.1,0,22.7,0C267,69.6,267.2,69.6,267.4,69.6z M250.6,98.9
			c0.8,0.2,0.9,0.2,1.3-0.4c0.3-0.5,0.7-1,1-1.5c0.1-0.2,0.4-0.3,0.6-0.3c1.3,0,2.5,0,3.8,0c0.2,0,0.4,0.2,0.6,0.3
			c0.4,0.5,0.7,1.1,1.1,1.6c0.3,0.5,0.6,0.6,1.2,0.3c-0.7-1-1.4-2.1-2.1-3.2c1.3-0.4,1.6-1.3,1.6-2.5c0-2,0-4,0-6
			c0-1.4-0.7-2.1-2.1-2.1c-1.4,0-2.8,0-4.2,0c-1.5,0-2.2,0.7-2.2,2.2c0,2,0,3.9,0,5.9c0,1.2,0.3,2.1,1.6,2.5
			C252,96.8,251.3,97.8,250.6,98.9z M260.7,73.6c0-0.7,0-1.4,0-2.1c0-0.4-0.1-0.5-0.6-0.5c-0.9,0-1.9,0-2.8,0
			c-0.4,0-0.5,0.1-0.5,0.5c0,1.4,0,2.9,0,4.3c0,0.4,0.2,0.5,0.5,0.5c1,0,1.9,0,2.9,0c0.4,0,0.5-0.2,0.5-0.5
			C260.7,75,260.7,74.3,260.7,73.6z M266.1,73.7c0-0.7,0-1.5,0-2.2c0-0.4-0.1-0.5-0.5-0.5c-1,0-1.9,0-2.9,0c-0.3,0-0.5,0.1-0.5,0.5
			c0,1.5,0,2.9,0,4.4c0,0.3,0.1,0.4,0.4,0.4c1,0,2,0,3,0c0.3,0,0.4-0.1,0.4-0.5C266,75.1,266.1,74.4,266.1,73.7z M254,73.7
			c0-0.7,0-1.5,0-2.2c0-0.3-0.1-0.5-0.4-0.5c-1,0-2,0-3,0c-0.3,0-0.4,0.1-0.4,0.4c0,1.5,0,3,0,4.5c0,0.3,0.2,0.4,0.5,0.4
			c1,0,2,0,3,0c0.4,0,0.5-0.1,0.5-0.5C254,75.1,254,74.4,254,73.7z M250.1,80.3c0,0.7,0,1.5,0,2.2c0,0.3,0.1,0.5,0.5,0.5
			c1,0,2,0,3,0c0.4,0,0.5-0.1,0.5-0.5c0-1.4,0-2.9,0-4.3c0-0.3-0.1-0.5-0.5-0.5c-1,0-2,0-3,0c-0.3,0-0.5,0.1-0.4,0.4
			C250.2,78.8,250.1,79.6,250.1,80.3z M262.2,87c0,0.7,0,1.5,0,2.2c0,0.3,0.1,0.5,0.5,0.5c1,0,2,0,3,0c0.3,0,0.4-0.1,0.4-0.4
			c0-1.5,0-2.9,0-4.4c0-0.3-0.1-0.4-0.5-0.4c-1,0-2,0-3,0c-0.3,0-0.4,0.1-0.4,0.4C262.2,85.5,262.2,86.2,262.2,87z M260.7,80.3
			c0-0.7,0-1.5,0-2.2c0-0.3-0.1-0.4-0.4-0.4c-1,0-2,0-3,0c-0.4,0-0.5,0.1-0.5,0.5c0,1.5,0,2.9,0,4.4c0,0.3,0.1,0.4,0.5,0.4
			c1,0,2,0,3,0c0.3,0,0.4-0.1,0.4-0.4C260.7,81.8,260.7,81,260.7,80.3z M262.2,80.3c0,0.7,0,1.5,0,2.2c0,0.3,0.1,0.4,0.4,0.4
			c1,0,2,0,3,0c0.3,0,0.5-0.1,0.5-0.4c0-1.5,0-2.9,0-4.4c0-0.3-0.1-0.5-0.5-0.5c-1,0-2,0-2.9,0c-0.4,0-0.5,0.1-0.5,0.5
			C262.2,78.9,262.2,79.6,262.2,80.3z M248.7,73.6c0-0.7,0-1.4,0-2.1c0-0.3-0.1-0.5-0.5-0.5c-1,0-2,0-3,0c-0.3,0-0.4,0.1-0.4,0.5
			c0,1.5,0,2.9,0,4.4c0,0.3,0.1,0.4,0.4,0.4c1,0,2,0,3,0c0.3,0,0.4-0.1,0.4-0.4C248.7,75.1,248.7,74.3,248.7,73.6z M248.7,80.3
			c0-0.7,0-1.5,0-2.2c0-0.4-0.1-0.5-0.5-0.5c-1,0-2,0-2.9,0c-0.3,0-0.4,0.1-0.4,0.4c0,1.5,0,2.9,0,4.4c0,0.3,0.1,0.4,0.4,0.4
			c1,0,2,0,3,0c0.4,0,0.5-0.1,0.5-0.5C248.7,81.8,248.7,81,248.7,80.3z M244.8,87c0,0.7,0,1.5,0,2.2c0,0.3,0.1,0.4,0.4,0.4
			c1,0,2,0,3,0c0.3,0,0.5-0.1,0.5-0.4c0-1.5,0-2.9,0-4.4c0-0.3-0.1-0.4-0.4-0.4c-1,0-2,0-3,0c-0.3,0-0.4,0.1-0.4,0.4
			C244.9,85.5,244.8,86.3,244.8,87z M250.1,87c0,0.7,0,1.5,0,2.2c0,0.3,0.1,0.4,0.4,0.4c0.3,0,0.4-0.1,0.4-0.4c0-0.8,0-1.5,0-2.3
			c0-1.1,0.7-1.8,1.8-2c0.3,0,0.5,0,0.8-0.1c0.2,0,0.3-0.2,0.5-0.2c-0.2-0.1-0.3-0.2-0.5-0.3c-1,0-2,0-2.9,0c-0.4,0-0.5,0.1-0.5,0.5
			C250.2,85.6,250.1,86.3,250.1,87z M260.7,87c0-0.7,0-1.5,0-2.2c0-0.3-0.1-0.5-0.4-0.4c-0.3,0-0.6,0-0.9,0c-0.7,0-1.4,0-2.1,0
			c-0.2,0-0.3,0.2-0.5,0.2c0.2,0.1,0.3,0.2,0.5,0.3c0.1,0,0.3,0,0.4,0c1.4,0.1,2.2,0.9,2.2,2.2c0,0.7,0,1.4,0,2.1
			c0,0.3,0.1,0.4,0.4,0.4c0.3,0,0.4-0.1,0.4-0.4C260.7,88.5,260.7,87.8,260.7,87z"/>
		<path class="st6" d="M250.6,98.9c0.7-1.1,1.4-2.1,2.1-3.2c-1.3-0.4-1.6-1.3-1.6-2.5c0-2,0-3.9,0-5.9c0-1.5,0.7-2.2,2.2-2.2
			c1.4,0,2.8,0,4.2,0c1.4,0,2.1,0.7,2.1,2.1c0,2,0,4,0,6c0,1.2-0.3,2.1-1.6,2.5c0.7,1.1,1.4,2.1,2.1,3.2c-0.7,0.2-0.9,0.2-1.2-0.3
			c-0.4-0.5-0.7-1.1-1.1-1.6c-0.1-0.2-0.4-0.3-0.6-0.3c-1.3,0-2.5,0-3.8,0c-0.2,0-0.5,0.2-0.6,0.3c-0.4,0.5-0.7,1-1,1.5
			C251.5,99,251.4,99.1,250.6,98.9z M255.4,90.3c0.8,0,1.6,0,2.4,0c0.7,0,1.1-0.4,1.1-1.1c0-0.4,0-0.9,0-1.3c0-0.6-0.4-1-1.1-1
			c-1.6,0-3.1,0-4.7,0c-0.7,0-1,0.4-1.1,1.1c0,0.4,0,0.8,0,1.2c0,0.8,0.4,1.2,1.2,1.2C253.9,90.3,254.7,90.3,255.4,90.3z M253,92.9
			c-0.5,0-1,0.4-1,1c0,0.5,0.4,1,1,1c0.5,0,1-0.4,1-1C254,93.3,253.5,92.9,253,92.9z M257.8,94.8c0.5,0,1-0.4,1-0.9
			c0-0.5-0.4-1-0.9-1c-0.5,0-1,0.4-1,0.9C256.9,94.4,257.3,94.8,257.8,94.8z M255.4,85.3c-0.4,0-0.7,0.3-0.7,0.7
			c0,0.4,0.3,0.7,0.7,0.7c0.4,0,0.7-0.4,0.7-0.7C256.1,85.6,255.8,85.3,255.4,85.3z"/>
		<path class="st6" d="M260.7,73.6c0,0.7,0,1.5,0,2.2c0,0.4-0.1,0.5-0.5,0.5c-1,0-1.9,0-2.9,0c-0.4,0-0.5-0.1-0.5-0.5
			c0-1.4,0-2.9,0-4.3c0-0.4,0.2-0.5,0.5-0.5c0.9,0,1.9,0,2.8,0c0.4,0,0.6,0.1,0.6,0.5C260.7,72.2,260.7,72.9,260.7,73.6z"/>
		<path class="st6" d="M266.1,73.7c0,0.7,0,1.4,0,2.1c0,0.3-0.1,0.5-0.4,0.5c-1,0-2,0-3,0c-0.3,0-0.4-0.1-0.4-0.4c0-1.5,0-2.9,0-4.4
			c0-0.4,0.1-0.5,0.5-0.5c1,0,1.9,0,2.9,0c0.4,0,0.5,0.2,0.5,0.5C266,72.2,266.1,73,266.1,73.7z"/>
		<path class="st6" d="M254,73.7c0,0.7,0,1.4,0,2.1c0,0.3-0.1,0.5-0.5,0.5c-1,0-2,0-3,0c-0.3,0-0.5-0.1-0.5-0.4c0-1.5,0-3,0-4.5
			c0-0.3,0.1-0.4,0.4-0.4c1,0,2,0,3,0c0.3,0,0.4,0.1,0.4,0.5C254,72.2,254,72.9,254,73.7z"/>
		<path class="st6" d="M250.1,80.3c0-0.7,0-1.5,0-2.2c0-0.3,0.1-0.4,0.4-0.4c1,0,2,0,3,0c0.4,0,0.5,0.1,0.5,0.5c0,1.4,0,2.9,0,4.3
			c0,0.3-0.1,0.5-0.5,0.5c-1,0-2,0-3,0c-0.4,0-0.5-0.1-0.5-0.5C250.2,81.7,250.1,81,250.1,80.3z"/>
		<path class="st6" d="M262.2,87c0-0.7,0-1.5,0-2.2c0-0.3,0.1-0.5,0.4-0.4c1,0,2,0,3,0c0.3,0,0.5,0.1,0.5,0.4c0,1.5,0,2.9,0,4.4
			c0,0.3-0.1,0.5-0.4,0.4c-1,0-2,0-3,0c-0.4,0-0.5-0.1-0.5-0.5C262.2,88.4,262.2,87.7,262.2,87z"/>
		<path class="st6" d="M260.7,80.3c0,0.7,0,1.5,0,2.2c0,0.3-0.1,0.4-0.4,0.4c-1,0-2,0-3,0c-0.3,0-0.5-0.1-0.5-0.4c0-1.5,0-2.9,0-4.4
			c0-0.3,0.1-0.5,0.5-0.5c1,0,2,0,3,0c0.3,0,0.4,0.1,0.4,0.4C260.7,78.8,260.7,79.6,260.7,80.3z"/>
		<path class="st6" d="M262.2,80.3c0-0.7,0-1.5,0-2.2c0-0.3,0.1-0.5,0.5-0.5c1,0,2,0,2.9,0c0.4,0,0.5,0.1,0.5,0.5c0,1.5,0,2.9,0,4.4
			c0,0.3-0.1,0.4-0.5,0.4c-1,0-2,0-3,0c-0.3,0-0.4-0.1-0.4-0.4C262.2,81.8,262.2,81,262.2,80.3z"/>
		<path class="st6" d="M248.7,73.6c0,0.7,0,1.5,0,2.2c0,0.3-0.1,0.5-0.4,0.4c-1,0-2,0-3,0c-0.3,0-0.4-0.1-0.4-0.4c0-1.5,0-2.9,0-4.4
			c0-0.3,0.1-0.5,0.4-0.5c1,0,2,0,3,0c0.4,0,0.5,0.1,0.5,0.5C248.7,72.2,248.7,72.9,248.7,73.6z"/>
		<path class="st6" d="M248.7,80.3c0,0.7,0,1.4,0,2.1c0,0.3-0.1,0.5-0.5,0.5c-1,0-2,0-3,0c-0.3,0-0.4-0.1-0.4-0.4c0-1.5,0-2.9,0-4.4
			c0-0.3,0.1-0.4,0.4-0.4c1,0,2,0,2.9,0c0.4,0,0.5,0.1,0.5,0.5C248.7,78.9,248.7,79.6,248.7,80.3z"/>
		<path class="st6" d="M244.8,87c0-0.7,0-1.5,0-2.2c0-0.3,0.1-0.4,0.4-0.4c1,0,2,0,3,0c0.3,0,0.4,0.1,0.4,0.4c0,1.5,0,2.9,0,4.4
			c0,0.3-0.1,0.4-0.5,0.4c-1,0-2,0-3,0c-0.3,0-0.4-0.1-0.4-0.4C244.9,88.5,244.8,87.7,244.8,87z"/>
		<path class="st6" d="M250.1,87c0-0.7,0-1.4,0-2.1c0-0.4,0.1-0.5,0.5-0.5c1,0,2,0,2.9,0c0.2,0,0.3,0.2,0.5,0.3
			c-0.2,0.1-0.3,0.2-0.5,0.2c-0.3,0.1-0.5,0-0.8,0.1c-1,0.1-1.7,0.9-1.8,2c0,0.8,0,1.5,0,2.3c0,0.3-0.1,0.4-0.4,0.4
			c-0.3,0-0.4-0.1-0.4-0.4C250.2,88.5,250.1,87.7,250.1,87z"/>
		<path class="st6" d="M260.7,87c0,0.7,0,1.5,0,2.2c0,0.3-0.1,0.4-0.4,0.4c-0.3,0-0.4-0.1-0.4-0.4c0-0.7,0-1.4,0-2.1
			c0-1.4-0.8-2.2-2.2-2.2c-0.1,0-0.3,0-0.4,0c-0.2-0.1-0.3-0.2-0.5-0.3c0.2-0.1,0.3-0.2,0.5-0.2c0.7,0,1.4,0,2.1,0
			c0.3,0,0.6,0,0.9,0c0.3,0,0.4,0.1,0.4,0.4C260.7,85.5,260.7,86.3,260.7,87z"/>
		<path class="st5" d="M255.4,90.3c-0.7,0-1.5,0-2.2,0c-0.8,0-1.2-0.4-1.2-1.2c0-0.4,0-0.8,0-1.2c0-0.7,0.4-1.1,1.1-1.1
			c1.6,0,3.1,0,4.7,0c0.6,0,1,0.4,1.1,1c0,0.4,0,0.9,0,1.3c0,0.7-0.4,1-1.1,1.1C257,90.3,256.2,90.3,255.4,90.3z M255.5,87.1
			c-0.8,0-1.6,0-2.4,0c-0.5,0-0.8,0.2-0.9,0.8c0,0.5,0,0.9,0,1.4c0,0.5,0.3,0.8,0.8,0.8c1.6,0,3.1,0,4.7,0c0.5,0,0.8-0.3,0.9-0.9
			c0-0.4,0-0.8,0-1.2c0-0.6-0.3-0.9-0.9-0.9C257,87.1,256.2,87.1,255.5,87.1z"/>
		<path class="st5" d="M253,92.9c0.5,0,1,0.4,1,1c0,0.5-0.4,1-1,1c-0.5,0-1-0.4-1-1C252,93.3,252.5,92.9,253,92.9z M253.7,93.9
			c0-0.4-0.3-0.8-0.7-0.8c-0.4,0-0.8,0.3-0.8,0.7c0,0.4,0.3,0.7,0.7,0.8C253.4,94.6,253.7,94.3,253.7,93.9z"/>
		<path class="st5" d="M257.8,94.8c-0.5,0-0.9-0.4-0.9-1c0-0.5,0.4-0.9,1-0.9c0.5,0,0.9,0.4,0.9,1C258.8,94.4,258.4,94.8,257.8,94.8
			z M257.8,94.6c0.4,0,0.7-0.3,0.8-0.7c0-0.4-0.3-0.8-0.7-0.8c-0.4,0-0.8,0.3-0.8,0.7C257.1,94.2,257.5,94.6,257.8,94.6z"/>
		<path class="st5" d="M255.4,85.3c0.4,0,0.7,0.3,0.7,0.7c0,0.4-0.3,0.7-0.7,0.7c-0.4,0-0.7-0.3-0.7-0.7
			C254.8,85.6,255,85.3,255.4,85.3z M255.4,86.7c0.2-0.3,0.4-0.5,0.4-0.7c0-0.3-0.2-0.5-0.5-0.4c-0.2,0-0.4,0.3-0.4,0.5
			C255,86.2,255.2,86.4,255.4,86.7z"/>
		<path class="st6" d="M255.5,87.1c0.7,0,1.5,0,2.2,0c0.6,0,0.9,0.3,0.9,0.9c0,0.4,0,0.8,0,1.2c0,0.5-0.3,0.9-0.9,0.9
			c-1.6,0-3.1,0-4.7,0c-0.5,0-0.8-0.3-0.8-0.8c0-0.5,0-0.9,0-1.4c0-0.5,0.3-0.7,0.9-0.8C253.9,87.1,254.7,87.1,255.5,87.1z"/>
		<path class="st6" d="M253.7,93.9c0,0.4-0.4,0.7-0.8,0.7c-0.4,0-0.7-0.4-0.7-0.8c0-0.4,0.4-0.7,0.8-0.7
			C253.4,93.1,253.8,93.5,253.7,93.9z"/>
		<path class="st6" d="M257.8,94.6c-0.4,0-0.7-0.3-0.7-0.7c0-0.4,0.4-0.8,0.8-0.7c0.4,0,0.7,0.4,0.7,0.8
			C258.6,94.3,258.2,94.6,257.8,94.6z"/>
		<path class="st6" d="M255.4,86.7c-0.2-0.3-0.4-0.5-0.4-0.6c0-0.2,0.2-0.4,0.4-0.5c0.3-0.1,0.5,0.2,0.5,0.4
			C255.9,86.2,255.7,86.3,255.4,86.7z"/>
	</g>
</g>
<g id="ui6xb5.tif">
	<g>
		<path class="st5" d="M276.9,95.8c0-1.8,0-3.6,0-5.5c0.4,0,0.7,0,1.1,0c0.3,0,0.4-0.1,0.4-0.4c0-0.4,0-0.8,0-1.2c0.5,0,0.9,0,1.4,0
			c0.3,0,0.4-0.1,0.4-0.4c0-0.7,0-0.7,0.7-0.9c0,0,0,0,0.1,0c1.2-0.8,2.4-0.2,3.5,0.2c0.1,0,0.1,0.2,0.2,0.3c0,0,0,0.1,0,0.2
			c0,0.7,0.1,0.8,0.8,0.7c0.1,0,0.2-0.1,0.2-0.2c0-0.1,0-0.2,0-0.3c0-3.7,0-7.5,0-11.2c0-0.1,0-0.3,0-0.5c0.1,0,0.3,0,0.4,0
			c5,0,9.9,0,14.9,0c0.3,0,0.4,0.1,0.4,0.4c0,6.2,0,12.4,0,18.6c0,0.3-0.1,0.4-0.4,0.4c-3.9,0-7.8,0-11.6,0c-1.8,0-3.5,0-5.3,0
			c-0.1,0-0.3,0-0.4,0c0-0.6,0-1.2,0-1.8c0-0.5,0-0.9,0-1.4c0-0.6-0.5-1.1-1.1-1.1c-0.6,0-1.1,0.4-1.2,1c0,0.5,0,1,0,1.5
			c0,0.5,0,1,0,1.5c0,0.2,0,0.3-0.3,0.3c-1.3,0-2.6,0-3.9,0C277,95.8,277,95.8,276.9,95.8z M278.6,92.3c0,1,0,2,0,3
			c0,0.3,0.1,0.4,0.4,0.4c0.5,0,1.1,0,1.6,0c0.5,0,0.5,0,0.5-0.5c0-0.9,0-1.7,0-2.6c0-0.3,0.1-0.6,0.2-0.8c0.3-0.5,0.9-0.6,1.4-0.5
			c0.5,0.2,0.9,0.6,0.9,1.2c0,0.9,0,1.8,0,2.7c0,0.2,0,0.3,0.3,0.3c0.6,0,1.3,0,1.9,0c0.2,0,0.3-0.1,0.3-0.3c0-2.1,0-4.1,0-6.2
			c0-0.2-0.1-0.3-0.3-0.3c-0.3,0-0.7,0-1,0c-0.3,0-0.4-0.1-0.4-0.4c0-0.8,0.1-0.7-0.7-1c0,0-0.1,0-0.1,0c-0.8-0.4-1.6-0.4-2.4,0
			c-0.8,0.3-0.8,0.3-0.8,1.1c0,0.2-0.1,0.3-0.3,0.3c-0.3,0-0.6,0-0.9,0c-0.5,0-0.5,0-0.5,0.4C278.6,90.3,278.6,91.3,278.6,92.3z
			 M290.2,80.1c0-0.7,0-1.3,0-2c0-0.2-0.1-0.3-0.3-0.3c-0.9,0-1.8,0-2.7,0c-0.2,0-0.3,0.1-0.3,0.3c0,1.3,0,2.7,0,4
			c0,0.2,0.1,0.3,0.3,0.3c0.9,0,1.8,0,2.7,0c0.2,0,0.3-0.1,0.3-0.3C290.2,81.4,290.2,80.8,290.2,80.1z M295,80.1c0-0.7,0-1.3,0-2
			c0-0.2-0.1-0.3-0.3-0.3c-0.9,0-1.8,0-2.7,0c-0.2,0-0.4,0.1-0.3,0.3c0,1.3,0,2.6,0,3.9c0,0.3,0.1,0.3,0.3,0.3c0.9,0,1.8,0,2.6,0
			c0.3,0,0.4-0.1,0.4-0.4C295,81.4,295,80.7,295,80.1z M291.7,92.2c0,0.7,0,1.3,0,2c0,0.2,0.1,0.3,0.3,0.3c0.9,0,1.8,0,2.7,0
			c0.2,0,0.3-0.1,0.3-0.3c0-1.3,0-2.7,0-4c0-0.2-0.1-0.3-0.3-0.3c-0.9,0-1.8,0-2.7,0c-0.3,0-0.3,0.1-0.3,0.3
			C291.7,90.9,291.7,91.5,291.7,92.2z M296.5,80c0,0.7,0,1.4,0,2c0,0.2,0.1,0.3,0.3,0.3c0.9,0,1.8,0,2.7,0c0.2,0,0.3-0.1,0.3-0.3
			c0-1.3,0-2.7,0-4c0-0.2-0.1-0.3-0.3-0.3c-0.9,0-1.8,0-2.7,0c-0.2,0-0.3,0.1-0.3,0.3C296.5,78.8,296.5,79.4,296.5,80z M296.5,92.2
			c0,0.7,0,1.3,0,2c0,0.2,0.1,0.3,0.3,0.3c0.9,0,1.8,0,2.7,0c0.2,0,0.3-0.1,0.3-0.3c0-1.3,0-2.6,0-3.9c0-0.3-0.1-0.3-0.3-0.3
			c-0.9,0-1.8,0-2.7,0c-0.3,0-0.3,0.1-0.3,0.3C296.5,90.9,296.5,91.5,296.5,92.2z M290.2,86.2c0-0.7,0-1.3,0-2
			c0-0.2-0.1-0.3-0.3-0.3c-0.9,0-1.8,0-2.7,0c-0.2,0-0.3,0.1-0.3,0.3c0,1.3,0,2.7,0,4c0,0.2,0.1,0.3,0.3,0.3c0.9,0,1.8,0,2.7,0
			c0.3,0,0.4-0.1,0.4-0.4C290.2,87.4,290.2,86.8,290.2,86.2z M291.7,86.1c0,0.7,0,1.3,0,2c0,0.2,0.1,0.3,0.3,0.3c0.9,0,1.8,0,2.7,0
			c0.2,0,0.3-0.1,0.3-0.3c0-1.3,0-2.7,0-4c0-0.2-0.1-0.3-0.3-0.3c-0.9,0-1.8,0-2.7,0c-0.3,0-0.3,0.1-0.3,0.3
			C291.7,84.8,291.7,85.5,291.7,86.1z M296.5,86.1c0,0.6,0,1.3,0,1.9c0,0.3,0.1,0.4,0.3,0.4c0.9,0,1.8,0,2.7,0
			c0.2,0,0.3-0.1,0.3-0.3c0-1.3,0-2.7,0-4c0-0.2-0.1-0.3-0.3-0.3c-0.9,0-1.8,0-2.7,0c-0.2,0-0.3,0.1-0.3,0.3
			C296.5,84.8,296.5,85.5,296.5,86.1z M287.7,90.3c0,0.2,0,0.3,0,0.5c0,1.1,0,2.3,0,3.4c0,0.2,0,0.4,0.2,0.4c0.7,0,1.3,0,2,0
			c0.1,0,0.2-0.1,0.2-0.2c0-1.4,0-2.7,0-4.1c0-0.1-0.1-0.2-0.2-0.2c-1,0-1.9,0-2.9,0c-0.1,0-0.1,0.1-0.2,0.2
			c0.1,0.1,0.1,0.2,0.2,0.2C287.3,90.3,287.5,90.3,287.7,90.3z M287.5,93.1c0-0.6,0-1.2,0-1.8c0-0.9,0-0.9-0.9-0.9
			c-0.3,0-0.4,0.1-0.4,0.4c0,1.3,0,2.6,0,3.9c0,0.9,0,0.9,0.9,0.9c0.3,0,0.4-0.1,0.4-0.4C287.5,94.5,287.5,93.8,287.5,93.1z
			 M278.4,93.1c0-0.6,0-1.2,0-1.8c0-0.9,0-0.9-0.9-0.9c-0.3,0-0.4,0.1-0.4,0.4c0,1.3,0,2.6,0,3.9c0,1,0,1,1,0.9
			c0.2,0,0.3-0.1,0.3-0.3C278.4,94.6,278.4,93.8,278.4,93.1z"/>
		<path class="st6" d="M278.6,92.3c0-1,0-2,0-2.9c0-0.4,0-0.4,0.5-0.4c0.3,0,0.6,0,0.9,0c0.2,0,0.3-0.1,0.3-0.3
			c0-0.8,0.1-0.8,0.8-1.1c0.8-0.4,1.6-0.4,2.4,0c0,0,0.1,0,0.1,0c0.8,0.3,0.7,0.1,0.7,1c0,0.3,0.1,0.4,0.4,0.4c0.3,0,0.7,0,1,0
			c0.2,0,0.3,0.1,0.3,0.3c0,2.1,0,4.1,0,6.2c0,0.2-0.1,0.3-0.3,0.3c-0.6,0-1.3,0-1.9,0c-0.2,0-0.3-0.1-0.3-0.3c0-0.9,0-1.8,0-2.7
			c0-0.6-0.4-1.1-0.9-1.2c-0.5-0.2-1.1,0-1.4,0.5c-0.1,0.2-0.2,0.5-0.2,0.8c0,0.9,0,1.7,0,2.6c0,0.5,0,0.5-0.5,0.5
			c-0.5,0-1.1,0-1.6,0c-0.3,0-0.4-0.1-0.4-0.4C278.6,94.3,278.6,93.3,278.6,92.3z"/>
		<path class="st6" d="M290.2,80.1c0,0.7,0,1.3,0,2c0,0.2-0.1,0.3-0.3,0.3c-0.9,0-1.8,0-2.7,0c-0.3,0-0.3-0.1-0.3-0.3
			c0-1.3,0-2.7,0-4c0-0.2,0.1-0.3,0.3-0.3c0.9,0,1.8,0,2.7,0c0.2,0,0.3,0.1,0.3,0.3C290.2,78.8,290.2,79.4,290.2,80.1z"/>
		<path class="st6" d="M295,80.1c0,0.6,0,1.3,0,1.9c0,0.3-0.1,0.4-0.4,0.4c-0.9,0-1.8,0-2.6,0c-0.3,0-0.3-0.1-0.3-0.3
			c0-1.3,0-2.6,0-3.9c0-0.3,0.1-0.3,0.3-0.3c0.9,0,1.8,0,2.7,0c0.2,0,0.3,0.1,0.3,0.3C295,78.8,295,79.4,295,80.1z"/>
		<path class="st6" d="M291.7,92.2c0-0.7,0-1.3,0-2c0-0.2,0.1-0.3,0.3-0.3c0.9,0,1.8,0,2.7,0c0.2,0,0.3,0.1,0.3,0.3c0,1.3,0,2.7,0,4
			c0,0.2-0.1,0.3-0.3,0.3c-0.9,0-1.8,0-2.7,0c-0.2,0-0.3-0.1-0.3-0.3C291.7,93.5,291.7,92.9,291.7,92.2z"/>
		<path class="st6" d="M296.5,80c0-0.6,0-1.3,0-1.9c0-0.2,0.1-0.3,0.3-0.3c0.9,0,1.8,0,2.7,0c0.2,0,0.3,0.1,0.3,0.3c0,1.3,0,2.7,0,4
			c0,0.2-0.1,0.3-0.3,0.3c-0.9,0-1.8,0-2.7,0c-0.2,0-0.3-0.1-0.3-0.3C296.5,81.4,296.5,80.7,296.5,80z"/>
		<path class="st6" d="M296.5,92.2c0-0.7,0-1.3,0-2c0-0.2,0.1-0.4,0.3-0.3c0.9,0,1.8,0,2.7,0c0.3,0,0.3,0.1,0.3,0.3
			c0,1.3,0,2.6,0,3.9c0,0.2-0.1,0.3-0.3,0.3c-0.9,0-1.8,0-2.7,0c-0.2,0-0.3-0.1-0.3-0.3C296.5,93.5,296.5,92.9,296.5,92.2z"/>
		<path class="st6" d="M290.2,86.2c0,0.6,0,1.3,0,1.9c0,0.3-0.1,0.4-0.4,0.4c-0.9,0-1.8,0-2.7,0c-0.2,0-0.3-0.1-0.3-0.3
			c0-1.3,0-2.7,0-4c0-0.2,0.1-0.3,0.3-0.3c0.9,0,1.8,0,2.7,0c0.2,0,0.3,0.1,0.3,0.3C290.2,84.8,290.2,85.5,290.2,86.2z"/>
		<path class="st6" d="M291.7,86.1c0-0.6,0-1.3,0-1.9c0-0.2,0.1-0.4,0.3-0.3c0.9,0,1.8,0,2.7,0c0.2,0,0.3,0.1,0.3,0.3
			c0,1.3,0,2.7,0,4c0,0.2-0.1,0.3-0.3,0.3c-0.9,0-1.8,0-2.7,0c-0.2,0-0.3-0.1-0.3-0.3C291.7,87.5,291.7,86.8,291.7,86.1z"/>
		<path class="st6" d="M296.5,86.1c0-0.7,0-1.3,0-2c0-0.3,0.1-0.3,0.3-0.3c0.9,0,1.8,0,2.7,0c0.2,0,0.3,0.1,0.3,0.3c0,1.3,0,2.7,0,4
			c0,0.2-0.1,0.3-0.3,0.3c-0.9,0-1.8,0-2.7,0c-0.3,0-0.3-0.1-0.3-0.4C296.5,87.4,296.5,86.8,296.5,86.1z"/>
		<path class="st6" d="M287.7,90.3c-0.2,0-0.4,0-0.6,0c-0.1,0-0.1-0.1-0.2-0.2c0.1-0.1,0.1-0.2,0.2-0.2c1,0,1.9,0,2.9,0
			c0.1,0,0.2,0.2,0.2,0.2c0,1.4,0,2.7,0,4.1c0,0.1-0.2,0.2-0.2,0.2c-0.7,0-1.3,0-2,0c-0.3,0-0.2-0.2-0.2-0.4c0-1.1,0-2.3,0-3.4
			C287.7,90.6,287.7,90.4,287.7,90.3z"/>
		<path class="st6" d="M287.5,93.1c0,0.7,0,1.5,0,2.2c0,0.3-0.1,0.4-0.4,0.4c-0.9,0-0.9,0-0.9-0.9c0-1.3,0-2.6,0-3.9
			c0-0.3,0.1-0.4,0.4-0.4c0.9,0,0.9,0,0.9,0.9C287.5,91.9,287.5,92.5,287.5,93.1z"/>
		<path class="st6" d="M278.4,93.1c0,0.8,0,1.5,0,2.3c0,0.2-0.1,0.3-0.3,0.3c-1,0-1,0-1-0.9c0-1.3,0-2.6,0-3.9
			c0-0.3,0.1-0.4,0.4-0.4c0.9,0,0.9,0,0.9,0.9C278.4,91.9,278.4,92.5,278.4,93.1z"/>
	</g>
</g>
<rect x="1.5" y="61.5" class="st8" width="43.5" height="60.7"/>
<rect x="98.3" y="63.6" class="st8" width="215.2" height="60.7"/>
</svg>
